<mxfile host="app.diagrams.net" agent="Mozilla/5.0 (Windows NT 10.0; Win64; x64) AppleWebKit/537.36 (KHTML, like Gecko) Chrome/132.0.0.0 Safari/537.36 OPR/117.0.0.0" version="26.1.0">
  <diagram name="Page-1" id="dF9hiS6kCJigNhF2XBtt">
    <mxGraphModel dx="2474" dy="869" grid="1" gridSize="10" guides="1" tooltips="1" connect="1" arrows="1" fold="1" page="1" pageScale="1" pageWidth="850" pageHeight="1100" math="0" shadow="0">
      <root>
        <mxCell id="0" />
        <mxCell id="1" parent="0" />
        <mxCell id="RA7v9M5Lo8Uv7JnHNY3p-36" value="" style="rounded=0;whiteSpace=wrap;html=1;" parent="1" vertex="1">
          <mxGeometry x="-240" y="150" width="840" height="550" as="geometry" />
        </mxCell>
        <mxCell id="RA7v9M5Lo8Uv7JnHNY3p-35" value="" style="rounded=0;whiteSpace=wrap;html=1;fillColor=none;" parent="1" vertex="1">
          <mxGeometry x="-230" y="160" width="820" height="530" as="geometry" />
        </mxCell>
        <mxCell id="RA7v9M5Lo8Uv7JnHNY3p-1" value="" style="rounded=0;whiteSpace=wrap;html=1;" parent="1" vertex="1">
          <mxGeometry x="-220" y="250" width="160" height="430" as="geometry" />
        </mxCell>
        <mxCell id="RA7v9M5Lo8Uv7JnHNY3p-2" value="Sources" style="rounded=0;whiteSpace=wrap;html=1;" parent="1" vertex="1">
          <mxGeometry x="-220" y="170" width="160" height="70" as="geometry" />
        </mxCell>
        <mxCell id="RA7v9M5Lo8Uv7JnHNY3p-6" value="Data Warehouse" style="rounded=0;whiteSpace=wrap;html=1;" parent="1" vertex="1">
          <mxGeometry x="-50" y="170" width="620" height="30" as="geometry" />
        </mxCell>
        <mxCell id="RA7v9M5Lo8Uv7JnHNY3p-7" value="Bronze Layer" style="rounded=0;whiteSpace=wrap;html=1;fillColor=#ffe6cc;strokeColor=#d79b00;" parent="1" vertex="1">
          <mxGeometry x="-50" y="210" width="180" height="30" as="geometry" />
        </mxCell>
        <mxCell id="RA7v9M5Lo8Uv7JnHNY3p-8" value="" style="rounded=0;whiteSpace=wrap;html=1;" parent="1" vertex="1">
          <mxGeometry x="-50" y="250" width="180" height="430" as="geometry" />
        </mxCell>
        <mxCell id="RA7v9M5Lo8Uv7JnHNY3p-9" value="Gold Layer" style="rounded=0;whiteSpace=wrap;html=1;fillColor=#fff2cc;strokeColor=#d6b656;" parent="1" vertex="1">
          <mxGeometry x="390" y="210" width="180" height="30" as="geometry" />
        </mxCell>
        <mxCell id="RA7v9M5Lo8Uv7JnHNY3p-10" value="" style="rounded=0;whiteSpace=wrap;html=1;" parent="1" vertex="1">
          <mxGeometry x="170" y="250" width="180" height="430" as="geometry" />
        </mxCell>
        <mxCell id="RA7v9M5Lo8Uv7JnHNY3p-11" value="Silver Layer" style="rounded=0;whiteSpace=wrap;html=1;fillColor=#f5f5f5;strokeColor=#666666;fontColor=#333333;" parent="1" vertex="1">
          <mxGeometry x="170" y="210" width="180" height="30" as="geometry" />
        </mxCell>
        <mxCell id="RA7v9M5Lo8Uv7JnHNY3p-12" value="" style="rounded=0;whiteSpace=wrap;html=1;" parent="1" vertex="1">
          <mxGeometry x="390" y="250" width="180" height="430" as="geometry" />
        </mxCell>
        <mxCell id="jjyL37ydzv4EgVIUEbSo-10" style="edgeStyle=orthogonalEdgeStyle;rounded=1;orthogonalLoop=1;jettySize=auto;html=1;entryX=0;entryY=0.25;entryDx=0;entryDy=0;curved=0;" edge="1" parent="1" source="RA7v9M5Lo8Uv7JnHNY3p-39" target="jjyL37ydzv4EgVIUEbSo-1">
          <mxGeometry relative="1" as="geometry" />
        </mxCell>
        <mxCell id="jjyL37ydzv4EgVIUEbSo-11" style="edgeStyle=orthogonalEdgeStyle;rounded=1;orthogonalLoop=1;jettySize=auto;html=1;curved=0;" edge="1" parent="1" source="RA7v9M5Lo8Uv7JnHNY3p-39" target="jjyL37ydzv4EgVIUEbSo-2">
          <mxGeometry relative="1" as="geometry" />
        </mxCell>
        <mxCell id="jjyL37ydzv4EgVIUEbSo-12" style="edgeStyle=orthogonalEdgeStyle;rounded=1;orthogonalLoop=1;jettySize=auto;html=1;entryX=0;entryY=0.5;entryDx=0;entryDy=0;curved=0;" edge="1" parent="1" source="RA7v9M5Lo8Uv7JnHNY3p-39" target="jjyL37ydzv4EgVIUEbSo-3">
          <mxGeometry relative="1" as="geometry" />
        </mxCell>
        <mxCell id="jjyL37ydzv4EgVIUEbSo-13" style="edgeStyle=orthogonalEdgeStyle;rounded=0;orthogonalLoop=1;jettySize=auto;html=1;entryX=0;entryY=0.5;entryDx=0;entryDy=0;curved=1;" edge="1" parent="1" source="RA7v9M5Lo8Uv7JnHNY3p-39" target="jjyL37ydzv4EgVIUEbSo-4">
          <mxGeometry relative="1" as="geometry" />
        </mxCell>
        <mxCell id="RA7v9M5Lo8Uv7JnHNY3p-39" value="FPL API" style="shape=image;verticalLabelPosition=bottom;verticalAlign=top;imageAspect=0;aspect=fixed;image=data:image/png,iVBORw0KGgoAAAANSUhEUgAAAyAAAAFZCAYAAABgwktIAAAACXBIWXMAAC4jAAAuIwF4pT92AAAAGXRFWHRTb2Z0d2FyZQB3d3cuaW5rc2NhcGUub3Jnm+48GgAAIABJREFUeJzsnQmYXUXR909YMnNPV99JgAgoEJZIYCCZpbu6u/reyQVZjIoKnwRxQQUFffVFAVcQjQsuqCi4gIL4qqiAIiIii4AigrKJsohsIsq+7wKRJN9T596bTMJkMsu5y8zU73n6QSE5t0+fPn2quqvqnyTClGFg5sDmqOn98zeer2r/aloywXAbLCz6tGy88rtVZlWg1f0RBEEQBEEQBGENlDVui0DfMCrMS5LKeskEBFVpB0zDu2zBvy5uGHWr+yMIgiAIgiAIwhqIadwdITxrVTjeAG2XTDC6i90boPJHWxXuMwX/P2am6Wp1nwRBEARBEARBGAKTDmzq0niE16XlCOE51KW3JxOIgxKzPkI4FoGeRoiPYOo/Fophg1b3SxAEQRAEQRCEITCqtJOF+Ct2QIIuL0conWNU3DmZAHR3d0/3KX3CQbyTigPLEehRq9wXylCe1eq+CYIgCIIgCIIwBAbCu1HTQ+yAVE9B4rMI8WuVZHZn0sbEJGqnaT8H9G+v4/JQZOeJHnMqfMsrv3Gr+ycIgiAIgiAIwmosSrqnI9BXSQ8sdzpmjU8SHMRr+wthryRJ1k3akkXr+kJ8A5981PtddZ7oKQelH/UUwsta3UNBEARBEARBEFbDKbezBTovsNNRM+RrbZlVdCkndydtiFXlfRHin9npWNUBif9BiOeYztIWre6jIAiCIAiCIAirYSF8EiHc6XV5FQckM+YVPeiUO7TS1TOj1f0crEtigPZ2Kv6+2tdVHRCn4/NO02W+y2/Z2u4KgiAIgiAIgrAKi5JF61oIv1rt5GOlA6LjCw7CjX2dSG3ifEwzyu2MQBc6iEs4YX71fmd91vGGWDTbtLjPgiAIgiAIgiAMdj48+O1R0d/CoPyPVVu1KpYthKNMp2l5SJNNqQ91OMtpWlI7sVk2hAOyzALdhRq3bXV/BUEQBEEQBKFRTNs62bprdlY1avmKUKF2xm3gii51H0Kgu7l61NAOSM2oB7rfQXhnS/ubuh6nwon1Sl3D9dcCPdEHfvsGdoef8YR4zoIgCIIgCMIkpJJUOvu78B0I9LE+HVsdrjQieqE8y6V0IQI9uzaDPhQ5HyT+DNdD24q+er3g5Qjxmwj0ohOPIUPHgJZaRTs2rD/Kb1yBykaNur4gCIIgCIIgDMvCZGGHAbc3arrUarrMKnqfmblr16A/0na75ZjGXqdjpv0xQqP+MZfG45p9L71J7yxWObcQH1k9UX5Nfa2WEibMvzeL17FAB7mOuHM5Kc/M//qCIAiCIAiCMNJ8CuXnO003UnEBV4+6DaH0CSygNUmyftJmoMYNEfyBnEMxEgckOwVhhXRNfwsq7NosbZAKmI0wxSMdhHtreSojOgHJ/nfOSu586mFT2p9L/Lo07r68DZ1KQRAEQRAEYQqx60zThZouYRG/FYriaTjVqrDr/I3nq6SNsKntc5p+ippeGKkDUjsFeQZTOstsZDZtdB8NVDZy2h2AEJ4KI+zjYAekP6U9kqSyXi59SQY2xU76mFV0N6pwcl+xb04e1xUEQRAEQRCEcYHgz36RsQzxH6joU7smZnBIVktBTXugDg+M5EThxaV56Wkshn04ib1R/ZuTzOlwaXgbAj0+lj5mDkhn2GfTxKTj7UvcML4Udfk7CHG5VfSw7yyVTWLa7lRLEARBEARBmIJYTSci0HN1I7j2z2Wo4wNWhV+Z1O2eJIuaEr60JhYl3dNR0wfXVvlqmLYMga4MEEq1S+YeimQgvNsC3TqW/q040UnpgNXycEaN1XEu6nCGA3qaE+AR6HehGNpSGV4QBEEQBEGYgvBJB0K8e/Wwplr+BBuwv7WaPoS63DKNCttFfViMPwjFNWl/jLh91qQDuYdiWRXfaoGu9mN0kOpjj8V4cBnKs8bSh8VJsk4oBGfB/wg1PcthdQ7o3yb1H5fTD0EQBEEQBKFt8EAHoY7XDZVXwf+ODVmE8ICDeJwtLMCYzNXN7iNCeJfT4YaR5n4MbeSzQxWvz1MbpDvpnu5VaScH4VoWQBxr/1Y4IEAfC4XwstH2gx2MAKHiFH2/nsuTOWsqXuZTb7jgQF73LAiCIAiCIAjjoj/LrShdzCcewxvKpeU2jddZ8G+oJJUZzeyjTeNxDsZ18pE10gPLrQpnhSQz8scdhsXGPQJd50aRGD+cA2JV/KzrcFuNth/YQbugonMHq8PXEvBPGe89CoIgCIIgCEKumNT0O6CfZiE7azGUUcelDuLDXoWTy+v7+U3o3jp9M/pmcxnZkfRvJIa+1XSfhXDMeDvWBwMLvC791um4JI9+1UKwvsY5HCPvxfJpfR24i1V02erXQ4i3oqL3j/c+BUEQBEEQBCFXulPcxCo6fiQGfhbaw6FMQI8g0AVY8P8TksYlOFeSynqo8M18ypCHAzLICbmRw8mMGVtuBAItQE2nsfMxnpOPwadLtX+eaGaGeSMNu+pT2cnHJQj038EnWJysbzWdZcFWxnJ/giAIgiAIgtBQOPRnNAZ+Nc+gzEnOt9g0fhIL0TYiz6DqgISTEehRX8zD0F+RXP+sVXSSK7jNRtunXnDdDko/chCfzsf5WOmAIMSf+C5v1j4ui9djrRZUdHY952Nw6V9+llaHL8zrmifK54IgCIIgCEL7YVU4ZCzGdLbrzrkZKZ3e30Gv6J5VgTxL3O6S7LIhJ45nzk4uhv7KxqWHHdCeo3Gc2GExiv7PQnxi7TkzY2iKzradNq6tHwgDC4yiMzinZU3XstodMO4HIAiCIAiCIAiNAFP/DhasG6dBf69R/tM7qh03zqNPhrNTpptXOx3vG4f+x7DNFv05fYALRtKf7k6zhQX/1XxPPlYbw5R+a5TfadhxSU0/qnDWME7ZMgvhGqP8bnk8B0EQBEEQBEHIHa/j6xDiX8dqOA8qI/uog/ArV3CvH2+fXKGymUvjVxDoyYYZ/JqWovKf2mPT4dXH7Uy7uYO42FVVzhvSl+r4xatMMe6+pn70av9yrnY1WDhyiOewrF/RCbg+7jDeZyAIgiAIgiAIDQFn0AIsxnNyyq94wWn6A4L/GBvMY+2TVbQjpvG6PKpMralxCBMCXWM17bemfhgwGzkIRzigfzUk7GoVhyj+3erw2qH6sUNH3MYCfR+Bnl3T6ceKcr4pHYQJbjjWsRcEQRAEQRCEpNxVnsnGcCOubVSYh5q+nYcRXRfBQxUetcV4nNUUXbKwONo+We1fZYGWNtLgX3Fyo+I5pOa/ZPU+xA2jDioc7IBuHi7fIjcHBOguB7T3i55PZ2mLfoifdJqGFTus/bfnCWhEYWWCIAiCIAiCsEacdgELYa++Qnzp7KTSmWeyN4c7IdCRg43y3Ax8RVcbRW+qJFmC+ojAtLKJhXB4tS+NCb+qN84vYcMfO/1h3Un3ij7GJGoL9v+hincOFvhrsAPyKBbDm1cvt2tT+hACPTNSJyYW4zZ5zQ1BEARBEARhijJngzlFC/4go+ItVoXPlDvs1nldu5J0g039/nk7ILW2FHV4ACGc6tfvG5F4oZ9ZKdtiPLNRuR9DNavojpKq5k1UKsl6XttXIfg7UdOK8rYNb0BLUMd3DB4LVPEwVHTr2saipnz+jIPSL9lJzWtuCIIgCIIgCFMYTLHXQvwBQrwLNf3BQvikLVjM49q9KuzKJXXzNvrrOhUI4UmE8FsD4d2VtYSSsRHOVbWaZfhn/dP0ggU6xnaUt+4rhoVOh6ub5ngM6gePT30cggpv8UDX1P/bcH+3mp9CD3pNnw7FxolDCoIgCIIgCFMI1qzIcioU3ZypXQM97IB+jGl4u9VxbpIk64z12jalPgvhyUYa17Uk9b9h1Uh2y5PlQ4aRORU/G5p4+lGvHoVA/7KQ5a2c2ajSv2tPio/v4TEwEEpOxcudphdG4hTWHJB/W+X3nb/xfDWeeSYIgiAIgiAIg1kXlT8Mge5gxWtWCEcIT1mgr1sIlUpXZQb/mdFe1IPf3uhwA2r6byON7HqlLAT6pe/yO5mZu3YN7gc7Ug7iqaNRZs/ZEeH+Nf23MwekuIAT4g/jErqYhp84iMtGeiKVJf5DvNWkA/2sIJ/rjBMEQRAEQRCmNnOShR0G4qn4YuP5XoT4zb6kb06SLB7VaYjtsluj8mc7iM80KfdiqdPhAZuGwwfnLJg0vM0BXd2KE4hWt+yegb7vgI7xMLpnwInyCHQ9V+5qyKQTBEEQBEEQpjaYhoUW4kW8az7IAVnuID6Oiq50OnzYKz9iVfJY6HupTcNxCPHxZjggK0vg0iOs7I2Ae2X3BeFYBHqimQno7dRYkR4hPDCa+x8kBPmbhk46QRAEQRAEYerSnXRPNyoeikCPrboTXq5XRLrVKvquKcTXuw3cWnU4UOOGRodDUdODjRbcW72/1epP9AcD9FGEeL1vA0egRS0LuRqt81V93vExq+ik5sw+QRAEQRAEYUrSp/x8q+j7azLsPZR5R/0KW6T3Oih3cxL7mq7VPasb+gH3Qk33NNMBWWF0V8OPWOtixHkP0lZxQG4zKX2suTNQEARBEARBmHLYGaHCIUtrEuyrnjDEJVgsnUNFwkXJoulDXYcTl3vSnl6E+M+pmH8xkRs/Lw/hT1b5NzZ/BgqCIAiCIAhTCpMObIrafweBnvTDn1w8byHc4dLw4UpSGVKHo6erZ4ZVdEuTT0CkjbNxxTCEeI4pGN/8GSgIgiAIgiBMKfjkor/LG3YchnNABiUq340q/hBTfOUQl1sPVbicczAkDGritMiFCIC+z3k8LZiCgiAIgiAIwtRj+TRUgU9BHmVdkLWXa41LEMKvHdAiM9MM1uGYZoFOd5qaVYpXWk4nIBbCV1o4AQVBEARBEISpmAtiIV48gvyNWtJ3JmB4OwIeaFKzaf06BuhLqOlecUAmTkNNyyyEw1s7AwVBEARBEIQpBwJ9ycEoDVig51CFk/10/3K+hlP0PlTxJklEnyittBx1uBchvKfV808QBEEQBEGYYmBKeyCUfjs6EbssL+Q/VtGlNvUHBRX2QaDfheJAGxjX0tb+/EocfvVX2xmlApYgCIIgCILQXHqSnhk2DR8ebfhUveoVAl3PpyFW040TtxJWVciv3vg++DSn2gayfImVbcGKFmuN9MAKMcfqtapGPv87/m8r/tyKtvo1B6q/xb9bu85YxAVH44AghN/0pzRUUQFBEARBEARBaCz9nW7AqXib03HpKAzZZZkjUiwvR0UPoaan2z0HZLBhz9W/VjoNtAyBnmVtFNT0EEK8G4HucEA3o6brHMSrnI6XOR0vQR0vdjpc5DT9xkE8D4F+7RT9EhWdgRB/ghB/iBB+aIF+jCr+zKnwq+zPQDzfAf3G6XgR6niJ08TtMr42avpr9ltAd7Coo9PxIQR6ygE9X+/30M5JaewnINr/yBSDa/XcEwRBEARBEKYgprO0hS+UPucgTtpKVqjpBafjEqfpOdTxPw7i0wjxaQfxPgS6zkK42IL/qVX0bVugo0whHOrS8DafmleHgnGhWJmDaWUTPjEyiUkXJ4vXG+04H5SY9U2yR7pj8oqNMcVNyl12ayygxRQXmtS9zSh3qFH+c1bRiajCL1CFS1HRzajoQdZscZlTEp9BTc/xvdTuadlYHBBXpGMW6AVZDo8gCIIgCIIgNJnl08z6A/1O0cMT3QEZKowKgZ5BHf/mstOKcLzT4cOoSvvYrgV9LMoYimGDeV3lmVxeOG4Y9fxkN8VORiWpdHYn3dNZN2VRsmhdLjlca+Mlu87iJFmHr137jU7+ze5ZFeA+cF/KXeWZ3Dd2fPpgwfZGx1d7oPd6xYUD6KdOx6uyMsp8v7UQrpGEbvGfw9R/tJz0zsrhXgRBEARBEARh9LAgnQP6JZ8KTAQnZKWTsTKHAoGeNzregDr8wqvwZa7O5YD2xpReaaBcwjT2hmKYwyWE2chPJhhhs1AoQ3mW7/BbWkU7el32qGgXq2hf1PEwC/ErnsO+oPQXB/R0loOSjc3gHJWqA+LT+A4WkWz1PQmCIAiCIAhTlDlz5nTY1O2HEG9tx2pWgx2OahI1PYVAtzugP6KKv0BN30agTxgd3uaV2cl1uK34ZCGZIuyWzFe2q7y17yyVgyq92UE8wmanPXSmU3QZAt2GEJ7isePEeAfx9a3usyAIgiAIgjC1mbZtsu1GDsL57aLnsUo4UZb7EB+wEP/pIPwRwf8QgT7mdXyd7Shv3erBa1dcl9vKpe41Lg0fQQinINCVqOgmr71vdd8EQRAEQRAEIUFFn3OKHmybMCzISv3ew6ccRsVD56UD/fOT+arV4zRRMYlZ33bZredvLGMoCIIgCIIgtAFYDAtR0wXNDsNamUg9wGV9n+EKUB7Cl/vA/j+jwrxQCC/LEsUTs36rx2gSsE5OyfSCIAiCIAiCMD7cBq6Imo5utAOyQqgv+51MGO92p+jnVsXP2pT2N8rvZnWcOyeZ09HqMREEQRAEQRAEoYFYFd/qgB7O3/EYJKIHmY7F3Q7oagt0uk3dh1yhFNrwhGMaO0FcHpdL4pKil/BpDGuncHNdA1txDkpfR5jjtX95H/jt640dqFiM25iOuA110mzbObC5K7jN+BrlrnkzK7O6obt76iTKC4IgCIIgCMKQ2AIhQjw1bwcENf2XFccdxIdR0WUWwidNGvpbcY+Lk8XrsLMzJ1nYEZJQYO2Puv5GT1dlBpcl9l1+y9iFvU65V/RDaS+b0gFOlw5xxbDY6vAFbq4Yj0UI32QBQwPhZAPh1Fo7zUA4xWl/glX+BITwZdT0OaPo01aVDrGp3x8h7OW7/E5h5oJ5ttNuPq9r3syFycKOWoiUIAiCIAiCIEwN2AD3EA+sh0qNN9TK6zIrby/3EP6EqT+yv+ACG9ssvlcT+GsqlWR2J59WGOV2dpr245K1Pg3fRBV+aSH8ySq6xQLdzyJ/DugxhPgEK5Fz6V9WUHc6q8j1n2qjZwe155ym5+uN///K/1b781BXYc/KCD/pID5e/w0H4XKnwqG2c4fNmz0mwtSgUqmsd1By0PoHJWb9RUn39Fa3Vo+HIAiCIAhthCkGh0CPjNXpyATwWHFbh3uc9ieZIr65P+03A+nApklSaYoAXl+h76WmM5SwiG/BlI60rBWi6OcOwkUO4uVOx2sd0M1O07+dpgcR6Gk+pRmco1Jv7ETVw8fyayuvXx0r+q8D+jdC+A2XzfXKb9yMcRKmBnzqZzV9yOl4Jmr6rdN0YcsbxPMd0HlO0dlG0RkW6AcI9DVT9Eca8P9jwb8B10PLJ5KtHj9BEARBEBoM5ytY8Ofx7v1ITkFWCgVmiuRPc26HU3QSQngPptjbyL7O3TDqXj7RAF82BdoTIR6IQEeiDt9CFX6BEK5AoLtQ0/PVxPcFmYNUd5LqKuGr6I60oFXHsOa4Ad3hIB5n0rg7n0iNZjzmb7ybMlDZaCKqvQuNg08bEcJpqGlpLFZq70FrW6w1Fsdkhxw5VBPCk1bTXVbTjajoUgd0ugMOdSx/1Ka0n1GlnUwxbjOVhEYFQRAEYUrAJW/7tf0AanqIDeK1Gc6o6QUHkUOWbrYQf2KVf2NIujfIu1+VpLIeV+ri0wHWszCp6e/T8a1W09GGQ6hS+puF8N9QdzCKqzoYrXIuxuSMFMvLrQqXWk37GTAbjXSMuothA6vCrqjjO7zy83u6/Ja9UJ5lEpNK+d1kqjsg3+PQwnZ+F150QlgcWB6zzYKsRPdjVsXznaajDLg9DZjteC3gcM5Wj68gCJMfzhnt6eqZwd9kbnw6yzaJbIgIQk4sSpJ1e6G3m3fi11qSF+Jyq+hvVoXP+vX75nOoRyP6xM5HmBnmcZlemxIndl+FEJ5ttcHUaGOMw8M8xG9urea/ZKRjhSoe5rPdZHrSaLrEKjraFWhPO9NyfokkuU9BJooDMoq2DIH+6YC+7hS9wiWu2OoxFgRh8mJSsymmuBCVfz9q+rTR/nMG/Mcxje/yuuy5Wmar+ygIkwIuP4sqXIBAL6xusHDIBJfVtRCvMBDezWKBtcTyXPM7elRpB4TwLlT0XQt0pYN4m9N0X5a8reMSNrIn2unG6B0QdvLoUQvhon5wAyMZN6tLr0KIV/Hf5dAzhPgIQrwbNd3kIJyfnRhBeU9McJM8n5fQvkwmB2TQO7+sVsThLgd0YVDx4L5CfGmrx1oQhMmDS+k1qMIPEeIN1XDueH9WzRPiI07TQ07TvQjxnxboasM5bBBKre6zIEx4bBoXV09BqmFMHNbEydJW0R9R0adMMe7O4Vp5/V53UgEsRGs1l6l1x1qIv0Kg69nIqIYlVXMkJrPTsSaDi2P3EcLFVrv9Nq2GU60R1+G2QuU/Nzi3JQtHK3I4HS1DTfcg0BVcbtmq8Bmv/L52up0rIVqTl8nkgKz+blQFTeMyr+ItCOEntkjv7SmEl7V6zAVBmLgYoO2sCl9wiv7AlSvrea4rC9MMKiST2UjZ95UL2lxgIR7BJyatvgdBmKhMM1AqOx0v4URRB/S01fQXhHiyhfiGucn4k5zZKGJhP3Y6UNMeqONhCPGHqOlvfLpRz+OYTAbT+AwtTlAP1/altP9aKgOtawv2tQj039XHbrBDkjmUQC+gCtdgSt/ANLzd6VJgB0ZiWicXk9UBWdlqGxT8jmj6l1H0OQdxgOO1Wz32giBMLHxX2bDGlwNawuvKSNfMujNigZ6wyn3G6mxjTxCE0WKSg9a3ik5ARU+jorP4xCMHtfJ1wmah4DZYWPTaewT/cafC79lYru8iTE4DKZ9WrZIV78fUH2iSNSenZ7s3EP6VhamMxLnJwuo4pCXeYFM6pq+DdskSfGdnCb6SNzLBmfwOyKrzOSuewWGbmg7gJFGZw4IgjIRqBEH4WYDyuNchC/6rfTP6Zrf6ngRhQtJbsGiU323uhnN1Ds5HssNMuzkWw8EGwkUI8YFMHV3HJa02WiZWK2UVgYwKB/dC76yhxtkV3Gasys5Hx6MxOLmiGQsmZuKLfPSs42Fbd5otxvvchdYylRyQVeYz0P029T8yiYRDCIIwPNnmaBpOdaP8bg7zPX3KAh1TE12WEGdBGA2zk0rn7GT2uMpcUjL/JQhhL4T4NTZqnaZ/INBz7aC/MTFbdcws0F0WwhEmE3hcFdS7bNifhiM4WW5tpZTXvIMcl6COd6KmS52K3/KF+LrR6pII7cFUdEDq94mcqK7i2f2KXtHq5yAIQnvCVaxMkd7kgP6V1xrJ31EOXTdF96ak6oQIgtBo2GkxXaHfQHgnpu7YqqhYfJxDfeqJ5K02UCZ647FEoNtZeHH1hDcWJOwvhL2cpnuqyedjM+Cq4o0D7Iw841T8vVXxCw7Ke0qS78RiKjogg+dxdmoI9Gurw2slHEsQhNWxXeWtUdOFmFXYLOVZQOZZA+Hc7uLuuWujCYIwCN4hd11uKwNub6P9jxzEpwcLArbaGJlkbVnNCbnHQPjIYCeEtVz6wG/vgP4xVgdk9YWUHZFMsVqVbrNQOtwWCWsnImLQtTlT2QGpt+w9UHSJ64o7S5EFQRAG41VpN9S0LO9vdHYKosKjfTpSHmHsgiAMAecjYNH/D0L4EwI932qDY6q0LBxLhadsGg4frIPAp1AIdN1oQ7BGnocSbjfKf6qv2DentTNPWBvigAyat0DX77BeL4oTIggCYzvt5pjGj9e/p3l/nzmn0oI7nAu7tPpeBWFSwdWsXBqPc0C3Ox2fasRLLG0ETcXHraYPkaK6avo6rKVSFW1swKKqaamF+IQF+isqf3RPh9+yxVNRWAPigNRbdu9LLIQretbHHVr9XARBaD392gWrws8asebU1tvnUIdfWB2lLK8g5AlXXHIFWmRS+hoCneY0Xe00PZXle4iOR9NadtQL8TZU8eC6Kj2qzOh8vFHPoB5ah0B3G0Vn9KfxHSLA1H6IAzKEsGdK3+6d7rpb/WwEQWgtLDGAEC5v4HrDAs5/xjT2tvpeBWFSskVSntmjcAdXpDd5oK86iBch0K38sa8ngrba+JjsrZoTEq+1Kr5xTjKngzU9EOjeRhudVVXY7LdvsBAWs7jk2hTbheYhDsjq87XEhRWedhAOz0NUVRCEiYuB+HoLdGOj1posWkDRHSxr0Op7FYQpQRnKs2xKB1mgq1mPgjUmWm14TBmxQh2vNxBKVpe/6CD+gx2E5v02LbMqXNEz3b3GwJrFEoXmIQ7IEHOVVdMhXmnS8LZWPx9BEFqHhfgGVPG2Bq43Sx3Qv00xuFbfqyBMGTjRs5JWNnHKHYIQ/tqYhGhpqzcWeLQp3Wg0/Rwh3tpso7O64xOetOC/gaoksfYtRhyQoVtVTydcUEsOFaEwQZiCmNS/GhVd06g1Jss7U+GPfcrPb/W9CsKUo9xVnunSLM7yZARJUm9GQ+AkcXo40/Bo8m/XBSbZ4HU6nt+naf9Wz8GpjDggQ7eq4CbdZwrhM3PmzOlo9XMSBKH5INACD3Reo76FCPE/BtwpfR1SMVIQWoZJQz+q8C3U9NBUMYRWKr5X9VAyXZRicxL0W600Xz/xsjr8xWh36FCq7cLEdkB4HrNGzGhb/R2oFjJoabGKZajoJqlQIwhTE6vtXAR3LOepNmJ9dEBPGcD3hCSIGKEgtBKzaWUjq+K3nYoPTzYnZKWzsWIhW4ZAz3EdcKfpIdR0D0K8wwHdghD/iRCfqP+9Vve9kS1kSb/ESb8fMcW4jYS7TA4HhKu7cIif0/GGkbcs2fPvXKCChTI5NtppehA5KbwFTvOgKjXvM1CRnCVBmGLMT+Yr22nfurJgTo7rS5FPQMKdtYp78t0ThFaDsyqbeIhf821gHOfYlg1qSx3E5xyEO1HFy7PyxMXwFatLhxgo70l6IDooL7JAP+YyuYP+/vLJ3FDTcs4L6YVeKX86wR2Q6ukWPRjTgd3LXeWtSzN33cJ3VbYctnVUtixPL2/LVdJcl9vZ6tJrHZTe6XT8AkI8G4H+5XR8vpnvQ80BeQGoBqtcAAAgAElEQVQVXWkK3rf6WQmC0HxI0Y4I4Z9O09I81xYH9LiBcGpIQqHV9ygIQg0OefCKvjTxEtOrO7Tc71gcyMJHLNBjqOkyq8OJVvsPYBoW9qjSDrzbbzpLW3DoEVeEMjN37TKJSTk5n//Jmhl9MyMZoC8hhH9wGd3JfhriqidCZxvld2r1HJwqNNABuc+oMC9JkvXq4pdra9wXk5j1FyZzOvijHDeMGjVu2FMIL3NdA1tZ7V9lgY7BNN7UzNMQBFpuUnx7ix+VIAgtgNcgC+Fw1PGJmk0y3g2QZVEv4PyPP5lC2dfWP0EQ2gVbIMQ0XsghEO1reFfzN+qx69luqabrUYefeXYclH8/n2Y4FXe2M2nHHbOKOovWHc04mKLZxoL/f+yQOYjXZgZek0QcVwsZa06pXqDnLMTzjPK7sSPWuBkmNNoBQZWvojiLaIZimGNSeo1Lw2IH4YZQ05pp9Ly0QN9AXd42z/sRBGFCsI7v8lsi0LkIbI+Mb71hW8EpFgam94/WHhCEyc64YxF7oTzLg9/e6VJwXfQKLNIrqy0stF1h10yHQtGONINmxzWIfVWSSqcpxNdn8eAtcS6GN8prVXK4hvc9qMO1CPRrhPBN7IoH4kwk3jUZ7ziuMh5Q2cin8R2Y0imo6SY21Otq4426V4T4SGZIAj3d6N+qtWVV47W03KrwawNmuzzHUGiuA2KV3bFRu3u8brjUvdMDXYAQH2/k3KxVbbvGF+MbG3EvgiC0P7wRiBB+izouG8t6s3Izj+51EI/gk91W35MgtAVs8MdCfCmHAI3l73cni6ZXS+q6Hk7adCp+zwH90ep4pwV6hMu+WgiPog73oKY/ow6nOk1HYWdpH7s+7VjpqszghK/FyeJVDBZMeeeRHmyXU5Bqci0nTdO9TsXLvaKje7R7zWbF5lSx4PAUVOEtDuhCD/EJ7k+jnAEHdB47VVbRmU7RQzXRyNziYIc1YmFgudH+1c0Y06nMRHVA6ri01OMg/rjRJaWz0tUqHNXIexEEob2xRb8v6nCpgxX5aKOwHeJSBLofU//xIM6HIFTpntUN/dA/gCkdWRPeGjVWx9c5TWcixEdR07MssFNTOF+6WhL2stq/X5IllUJc4iDeZwt0ni3QB2xHeevB152f4LZG+fM4B6JVTseKnQvgPIVwlSn6I/u7ymZ2MrtzYbKwg0NDmlzFYhqmuIkrlt/EO7M8nnnmy9SrdFlFR8+bHufyPfYVojXKf94C3THozzR0zI0Ob5+TLBQNhgYy0R0QZqBjYCtU4Qx2Qho1L6nIMdv0g0rSDY2+H0EQ2hejzDyWDODqjWsLUV4ZLRGXWk1/6JthX+sSV2z1PQhCW9DT4be0KnzRQfgNddAuo63IYIo7b2OVPwF1vM7puOKFHP7FXPnfV4T2QHwGgf5pgf6IEL4cIJTqv2F1+DAC3dPsEpxVLYIs/OI2p+gEp+hNsYiWE8drTkdL4cR16lrQ5yAc4YD+wvoJecTDrywTHA+cU1ss+X5tp93cdJbKCHQkQrg20y5pUGhWpkSt44fnK3pJq8d5MjMZHBCG800cxN94HZc0Yj7WHJDfmOKAk5KZgjB1yYpldMRtDDgOEf8qR3pwxUq2FWJxwfJSsVLPCV1mVbzJQOlHBuJ7/Aw/nzd7W91/QWgLPGTG5DeyEpdAV68pH2MNrOO196xgzjsBdeGwcRv8nKCVqXTTL60ufYiFgEwhOKdKJ2X/rRmORy0ZmhcWB/R11KW3c85K0qZUUtzEK7+vBfoB6nDnil2X8TkgS1HRLmv+PdoXFX27mnTPJzD5PptamcJjJPG3sUwWB4RBFfZxQFc24rTUVw2K6xDCu8QBEQSBQY3bOqA9rQ6HWBU+66H0VQfxWAT6koV4hFXxrT2F4LqTijgegsDM3TDqXrAVD/Ec1ttAzcnGpaNGXaUK6AehmH+VpKozkn3wl6Oi77oOtzum9FE+OWmk48HXR6AnUMWbEOKpDtzelWR2ZzJBMInZ1BbDYgt0Neep+PEl3T5OQMMmgVeSCvApCUI4FyHez3XS85oLtWS9n1pNsXkjOPWYTA4I/5ZT4ahGaAjxySIC3YvKf1kcEEEQBEEYJQsTV0SupgT0bzbws5JwOl4SimHhSK8xkLxyU5fSKc0QC8xCtTjPAehcC/GfDRQhe8Gq+DBq+q4HX04mMD0zcQer/UkI4YmxGf5ZXs4VfTNo9kh+rxd6ZyGE9zigm2u5Pbk8d6vD1Qbcno0fsanLJHNAEtS0B2p/WSM2RRDoPzb1p0vdfkEQBEEYBXam3dxBOIZDnLiUHH9YOWaRS7uWk/LMkV6nlg/xcLO0KGoG8TN5GbeDr83hGnxaYHX8Lnay8F9lIxZDSya4Udld7N6AY1StiuevNApHaDwCPeogHsfllEf4k9PMpiZFVdqBd6C50kceuSFcOc1DPLDBwzWlmWwOCOcpZaEQDcpLQk1/kBMQQRAEQRieFR9K31U2maGhw4ODjdHsQ63CF0dyscrs2Z1OuZ1Zm6PR4l+rf/jzNChWhHhxOV0Vz8Y0vqudczzGClfp4qRxo+hTFuItI8kNqY3LXRxPz2WRR/ubLNhkVXwjQjgVITxWTYwvjf0UJA2fbMzoCJPRAWEy4c4GrEO1HLQbtp65dVez70kQBEEQJhSs62HAlxHi9xDi8y8yQPkkQ/kPjORafYX4Ugv0fdTxP3mWfW1mq+5iRg7vuZE1Lowq7ZRMckIxbGBU+F+u4uMg1k6uhjY2a7k3f3NdbqvxGI9YjJZP2xDoOk5SH4txm51OqfCd7qS7KRorU5HJ6IBwcQynwoN5h2tmlW0g3jqvYx6XCpcwLEEQBEEYkuXJNKP8bhbCr4cKialVGvqzV35ECr+9nQPRqjjqvIJ2agj0rAX6c69yb5qTzJlSGhNBmXlOheOt4hC8TItl6HGCcH4ev3dQYtbHQtgLIVyenTaN0iCsGnx0ru0sV/LojzA1HBBStKNTdAnrDOV5clo7HbzdrG/626EMtyAIgiC0JbaLDkIdrl3TB7UafkXneuV3W9u15hXcZlxWbsXfawNnYrRGERtZVtM3+mb0zR6r4vtEh3N9rC69FhX9lYUVBz/L2hjdYVOXW9gTG2qsm2IUfQ4V3TOakzP+sxboRgv03rz6I0x+B6RX+5db8D9GiP/J1wGpvh+m05Sm2uaFIAiCIKyVhcmcDgvxk1bTjcOVRuU8DqPiD3sKhsW1hqUPaIGFkCU0T6S2In9E0R+spv0HNjKbJlOc+cluipXNMc3qld9fq4SWFSRwfOJQIMz7Nzmhvb8Q9jIpnV51fEbmiCDEZ42K38u7P8LkdUBYXNWocHzeyug15/lOUzS7hc1GJ9gqrJFpJuUSFqbfpPQao9ybHIR32iK9z2h3qAf6KGssGAjvdtq9LRTsa03BeDPTbJEkybqt7nw7Mnv27M4+8Nv71L/ap7R/P9B7HcSPOE0fsoreZ9PSAXwyHYrG0catE3o1ycCmXPiFc7Zc6g7gUHB+3h5KH3M6HOKL9F6naT9Mywtd6npMYiT3qkl0J7OANU76OmmBKbhFTrv9+B3sV+EQm8YP25Q+ZFQ4GCG+yxVoUU+H27kXXLfbQFTepzRe+Y299h9EiHfWFcfXbJzzjl74Jk+ctV3X8kKg6JGJ5nywnoXV4Sxe5Njwbs5TmBh4veDlqOJhHui31TEjbkclyaJ1G6Yg2xlKrB7LO8lV53DtSfFWxz90F4PkgTSAyeiA2M6BzVnE0kF8On8HhMuX4x5sMg/124uz+1207qIxttq7N64qWyYxGzlw3f0z3AAWw0Kv4+sM0N62EF4bOsKuruACTsdtqwZdY971oViUJOuaTrMF5yRmhSoUfdCq+EWrwomowhkW4sUIdIUF+ovTfPIZbnFA/0Ad/865ZA7C1Q7C76wOv+A5a3X4IhbjwaaLFvUXSsEklY2SFrM8SabVn+P45sDiUb03fO+ocBfHDgaEryCEnzgIFyHEPyPEGzh0EIFuc0A3Zv9O0aVO05mow3dQ0adQ+3f0gxswYBo2hpjghthJC3gjEBV92ik6CTWdhZouRaA/OxX+zs/bQfyH0/HvXPDBQbwKIV7ogE6viSZ/zBTDm40usxPaTIdkWjLO57raOz7u9zwvupOwQZ8qzzc6vhrBH2ghfNJCOA6BTkGI56AKlzsIV1nO51Tx76jibajoVlR0U/auqsgh1ueiDj/xEPkZHen5GRfplezEtEG46jQe7/E/t/E9r/mKXuJVeT4CLcAUFzquUgrxDbWIlF18oexjR9ymMmuCilaWoTzLa/qA01kC5hoTjQd/UBFKX7JdZU6qHBabhsMnZOK5ir/vK6IddCtt8dK3D4vX8aq0m9Ncrjf83Gv/qgb90Ipx757VDQj00erHkZ4dzkisJ/72av/qSlKZMKKQE4XJ6ICYmaUtXLEBDkgxK1H9b0xxD5O82AHhYg+oI9ki7eu6yovG0mwxvtEWCUMycod7TrKwIysQomhHm/pXORUOQe2/gcVwliuG3ztNV1tFf3OKrnRpuMil4TSbhmNsgd6LaWWT3B/AKn2b08EhmFnfCv4NqPyn2YFwim5xwGXQF2TvODceX5479cabE/VNihX/vlhe8eeztUHTMqtZOJZOcyoeijCwAHV5256uyoykBbhkYdFBec/xzQHat69Qeu1mydpP2bhsPJ9YGxUPNeAvdBCeG2o865EAg8cx1P9cdSPyXgR/tlXukFAwjudTPt/KxetEnpudNnpFH0AVz7YQH+Df5xN37sOLn3f1mfshnrkrZkVk7kRNp7H2VCgEx5uuDS6dv07m1Gt6zXie6+B33KT+1b269+VJa5g2r6s8k41d20mRC9QYHb+DEC9HRY9x8RcqVt/LMOR7uea5xM802/hV8SGn6ZKsEE0x7NOblnpcobJZK0LfMcVNsAN3Gc8zw2Lpzb7LG95EGenv8jfCFdxmlFIfb/4YTR9EHb9jIfzKqfB7hHAN6ni90/FKhPgbV13DvkhAE0/7bGGysMOlcXGm4TAKQwFV/Hxf5/CCcz2FnpehCt+qh+pMnNOP+IhTdPz8jbOTD3E81sjyaWajgU27i31zUOOGzfpVq8q7ItCv2YhY83Mss5HxEKb+q2zgNatvU4XJ6IBwBTfU/ju5h2BlOSDxTt6tGsoZ7i+4YFQ4g9fJlYbU6Fr2gVfhZ67TDYzkXnfbeDdl9UA0ir7E+VJc6GG4KncrW2l5AA7BdTs35CEkybS5yVydnXiq0pfYAUKg/zZyE6u25v8nq/an6YBSNUwr60vSJHrWL+3Aji8bcWOdA/x3uVqh1XHu2sJarS59CCHeltc85/LVFsJd/Wk4JhbjNotHeRIzmO5k0XQzvbKdS4mrId7VCHFQB+FOVP5om9q+pIFOdH9n/4CDePd43u3B77gD+pfT4dCkyfDznNdR3tql4Z0uDb9EFZ9obE5v9doc8eDS0td7CsF1J83d4bepf5VX4erxPLNYrPAz+9GOyY4bj+Anp4UkFHpT/yqOMHKKbvYwUikJtsnpsmQiwV6lTcNxDuje0UymLMlX01F25sDmw13fFAec0/Gn2Q5gwyZqgxrEh1GFX/RB3/bNeyITktoRc/MMRjZ+rbZz+Vi9agAPPb9YNBOBbjadpbpBIeTEZHRAeAccdfg56uFP18aahM67hkPt5OXlgDigKxzQouHvcvm0LMQBwqkW6G6E+ARq+u/INZMa54C4xBV96g9EFS5AoHsdxMfrVfcaaezUr83PnTefUNN1COHY2IW9yQRzQBDoCQe0J58WD/U7HkplBLrA8eaMpprTmccY8j+Jv5uPow5/41OlviQ7DRkV3SluYlQ41GYnXfHxlY5x3s+blrqswiLd6MF/OWwQXpbkzCRxQKZhEa0D+jpvVPB6z856o9/JlWkAtDRbo4DuMSr8ClV8i0n2GDKMtUEOyFXjc0AWsK18ni94v9b8WvD/zyo6LwvXhfhUXYZgUjoglMWV0dGowz0jv8mVhgJqOrqm+bBGUNMeCPHiiRaCVR+P6q5YOIfvo7t7ala/amf4mNKldABC+FN9Xg5hWDzDeTxDhb4IY2cyOiB9ys+3nC+g45LchQiHKcNrCt5boPFv1ADdw7H8q11+xS5+73T/chYXdRCvQKCnBodFjGp9hNJyo3xuOkiVtLIJnzy4lE7jXAMHtITHYix9G++6v6LsvKIHUdMFpug/bsBslzSY3unlbja0xvOtrO7s05MOwuEcPrL6b7guWuQg/oYdztCgcV3xzDiXVNHxHFo4qAvDnihlYsWavm1X5Pk19tmveNZA96Kmn/s05hqum4URdpoyOw15bMJWbRK6gxPtkybgs5yr8EWnw+9RxwdWeT+a9E4Ofi8R6LksL0nF75oC7d3ogh6YhoVOhSvGO8dcka4YTrKCihatjl+s5qvRknpY4eh+i8PX6NJkIsA7wg5Kh/NiVZ1Mo5tQ1ckQj13bUS+q8GZUdMVEc0BWmfhZvHC82Or4Vk4Gat5TEkZKUGEfTnrzUD0Wri+QtX++YHU40QA13IiYSkxGB8R3lspcMGO40L4x3RcXRAC61XW4rTjZuHEOSFxuVfjM6tdnp6evGC3v6luID9d3Y8e8LubkgHCIKye2Ox0/w4nDvINfdzxavfbXY9RR04Msasqx99s1MMw0LwekFkp2Sl9HmDPo8us4MHuipsuaZUBmYddAzyDEn3A43VqKFqzXB7jAqvALB5TlojTzWWc5I1meVrwQVenNeRUumagOiOmI2/A4OEVnsg5XPT+j1e9kdsrHaxeUlltFl6H2769916e1tQMC8TauJjfUN9Sr0k6+GH7ogB4f3zhPEAeE1aFNSkc6Tc+N1vEY/MJaTSdxgtBwv4WpfwcqumaiOiD1FvUCfvH/abX/QEyibt7TEkaK42Q1HVnD4ZFqOMCKtjTbUUvjq1vdx8nEJHRApmFn6c0cXpT3+lHVpYnXz0/mD1lNLy8HJMsBUHTC6tf3uuytjqf74otPCVvlgHDVJAO0p4XwR5dTvxrRqqFN2e7r9QbCe3qhd1YjDJ7cHBBN/7WKrub1sO581iroXLe26paNGLvMKU7DxcOUaF93XqE/WBX+iFANOWnVs+b3hwsT9BVL756/8dDv6mR2QHhNn69oR1T0pfoJ6VhtxKbMLQ7P0v67HCLWCH0lzMEBqb0Djzm9+rpcWY/fCQS6pvrnxjs/JogDYot0NBbjQ+PaAasudD+3M8KwStNc/xkhXj/+wW39ZK++/P5fDtzecUNxQtqRbaGykQH/Ma7MMvhDXi2a4D/Y4IonU4rJ5oDwTpqDeFxjDCA22OMla7qn3ByQ6q7zT0udK5KoE5xBC4wOZ+S6Ho7TAeHiJVbRUVzqfCJ9A7hQC0I4bV6HXWv1x1Y4IPWGQM9wrke9ZLpT8RKnY655TaPqD+fiFcMvwkw+CVkVo/xuFuiaeq5Pq1vNyP+3Kbp3z91wrp5KDggC7oXaX4Y6tsWzGGnjMr8mLb0977K9eTgg9efmIJ6/yrW7aBer6c+8YZDPOLSvA1LfrVnHQlxc11EY94ug6VKv/euG+2FU8WBU8aZ2OL4byz3WSrk+bnX8hdH+/X6mL3PuTBvUpxaGq/Ci/L5W02VcEpCfZeCdYR1/ajXFVvdvsjDpHBBFb3Iq3NKIdSRL2oR4eqMdkGquSbiov1YJK9POUOFkCyFLMm8HB6RXhV1Rh9O4yEezczzG+xz5ZJWdBC6HyQJq451zjXJAuK9W+9dVhRrLH0Wg51s9dlVDi06YP728bf2eeT22QKdX/1x7zIP6fORTcwPx9SFZVJjsDkhldqUTIX7ccX5FrSBFq5/DaJ+XA7rZFcPhLClRu61p7eKA1OzIa+rRMwa4wl/4GRdYyG8s2tMByR4CHyf2sSAgx6LlUL2g9iLcblM6YLgfR+Xfz2JQE2lC12NkESJXiDnV6HgYq7n3dPW0pD68MHq4Dr4Bt7cF1iipF02I91odPtzqvk0WJpMDMi8pz7TZ6UdjPpBc0QlV+HJzHJB4rU1pPz7tY9E2C3Rf3uFNY3VAejtKu9mqiN2z7RpyNaLnqekFBPolV8lpRwckC/kr+vdyBIKF0l/a4ftbrQQX7jEF+hRXgss0FnT4Jt9zO/Rv9WechZlDvMipuPNkdkDmJOVZrK3FQo4TaUNgUMuqpIVidkJ5u0tLh69NHqIlDoiKNxkV5s1P6CVYpK9yBbZ8x7o9HZCkkiTr2YJ/XU24JLcJZoGeN2n8+HC/bcC9GzVNiBCsleNCD7qqsM6n5+uVuzXNghctOWHJh3msngv0O37ZsxKVOvyMNQZE22X8TBYHhBXIHYR3OqC/NCL5tVaC93qTxnetad7l5oBUcxXu8Kr0OS77yLu4jTD0R+uAsDNUjXcOF1crMLX/92Bt3wpf5FOGcHFfIROrXbfdTkAchFMc0IXtNNbZ/EzjDS6l17jUHcFztZ01wjKHXtMJvsNvORkdEBb67CuU/pcToCeg4zH0/FKlewyUjjQzt+5qFwek9g243XTRIqtK70Mdb+CE83zvv00dEFZSdKm/JO8JliVsqXD8sL+t/BtRhcvbaREcpi1htWIH4ZOmGLdp0uNZh50NbrxYzUvmbcbhEyYN/XxqxR9uNvTEYB47vquyZa2UMp9q3WA66U21MRWmuAPC6rRmutkOga5oxOlHtk5WTyUudNqFRjsgtd153kC5CJX/QaMMi9E6IOwMoQpXoM43FKyVrTrWcQlXlrJd488JydMByRrEZ1sdejXkmAE9aYH+ioqeQsi32lwj+ut0vB81fW6yOSBbJ7t29afhwwixrebIeFuobcIg+I+P9zufmwNSjcC42+v4eZdmWirP578OtqEDUlWMjuc24kFXdy7oTJq+5hrpLHhlIVzQzg4I5wcghCcR6AeYYq/bwBWTcai4jhRWvHRFt7uFcLiF+AME+hOyOqsmXvDucRCu5Yo2tuDfsG1iNmp0fyYrrODaV4gvtYpOQKD7LYRz8tixnOpMBgckTrdzUYdLnaZnG7W+ZEJU4H/cnQwtDJdrGd6qmN4STu5GRU9wBbhG3NNoHBDT6bm08S/bJck413Go6Qw5RT/vne6628oBad+2LG+dnUa2annecHnvehZHa9C2swNiIH6ci7W0S+5Nns1XQ+hv60tpv003Hbv+V14OSH1dtoruc7pRDl+bOSBe+5fbah3n53wDlMhrnuafTYpvX1MfWISIY36rR5ntN0lZjAk1/YFzVRyM7wMyYuE8oD05vAtV/BkrF1e99UzxNVvs6q1WZu4hhHAtj6HV4QsOaG+b2GHV54Wh4br4FvxXLYS/+LTfiLDk1HZATIfZqZYAu6RRpx+1E4mlZi07qHk6IIN/u2Fr5wgdEFSlHayik7Jv0CQ0dOot095ggcekstlY5+MUckAmVJ5BNayHHsXUf3u0IoVt5oCsOH01EN/D0QAT6TmMepw0LTMQrsVOHCyE2TIHJGvQyPtuIweEd3wd0DEIoVbLOc9s+1VehkeN9ietqR+svIsqfq+dHJC68CLXuUZFZ7FKdh41v9fEwmRhR1Bhni/GN3qIX85URYEeq4puDQyrLFoXQsySmLJdWrrMpeEYq+JbfZc32EBhrMlIL7jufhU+awvufVzNrNX9mchMVAdkh067uVHuTajCL7k8aEMN9eqH8Hp+X5vtgDR0DR2BA7JpYlLUdDQrKE92o7pqpMZbfYHeO9Zw2ankgEzExjpgHhZsP4EdEF6117UFiwjx2vr1Wj2uDWrL6vdnVTiRk7/bwgHRU8ABMYnpQh3e7jQ1/JizKrBFV89OKkNWiOKwA6vCF9sp0Yx3O62iR1h1NXY0LteDd0swrWyCaXmhg/h91PRU/WRjrC/+ytLAHD8bfu1SdwBXfKiWd8str2Ea556YxKQcjjbZtDO2TrbuMioe5gpj360UGuuAoMId8sx74k2Acld5Zh/47W0aFluguzLRvoavNWUWBjzJpa5nKjkgvPb1pPQaBPpHM8a5HRpVxWovtEW7JsG9YREHpH1bvZS2UaX/5TLvE9UBYYVzq+j/EKhlmjDNbghxGYe5VyqjL+wjDsgY8Mq/0QHd3Yybrr1Ud6OKb1mTOJ9R4eBGhTiMxSBAHe6xOnxxbrW/DUvuxmLYB3X4DZecrInN5HkKtYyPGJ2mZ6yiW2waPrnddMylYhfq7Tacp13o0/6tJvVH4volNgYnE+uYmaarppzabLXtSUMjHZA8wyF7kp4ZthBf54B4E+D+xsXgDrXeDCz3KR2UJMunTSUHxHW4rZwOf3HZutccQ6e+sbOm1ozfR6CnHdCPxvJdEQekfVtdxwR1/B2msXciOiBzkjlFl4Z3stp8s8euVe+kW/lN+QN10aLRjpk4IKPEFkqvRYgX++ZWAvmPUXQuix7VurHK4oudpX2sorta/YBqYjA3GBZHfGljQpfYKHMd9AoH/scsjIO6GvvckEo0K6+7jJOrUdGVFuJXegs06h04s5HZ1BXCu11KpzgVL880XhTd2gfxI5y3kkxOeJ5KdbE2ckCyI3Ogh/uUf6MpBOfTsuHyrSNpLO7UX6RXYlfYywMd5JX/PKr4c+SS2hBvdUCP8brYNGNU01Kn6XoHMRMFnCoOCK8XWKBP83ehUWNdDU0tZ2t6Va+B7kag3/EYooonYxq/gSp+yyr/fT7pRgh/QoiPcTgrFwVolJFfy4u83Wr72rDZZoV2d0CqeZDlFWPJbW1hwa3W5qjmSA4M6u/gnMnG9oFzmcx0es1EdEA499QqaqgmDD+f+nPhsUJNf3Uq/ApTOgVV/LYD+rrVnBMWTkUIv2PF+frfadQz9FlJalpqIJw62hL84oCMAo5PdBB/Wk2qbO7iwVVX+jXtMVS4jlGlnfhoukUPZkWMNypOmI/v2hYqDakoVdblbZ0qHZKJF2laUn2hmvMxyRZh/i2gh7nwADtZHC/3gCUAACAASURBVG4ykpwIhHhgzZC8zkFcEvWC6kKn6EqjvTemsSFY8zvcVuw4uw0mraMzKWmEA5K9p5qesxBZL+Is1PEXI2t0FpdatjpehJourc5lyiq8NPLjthZH6r+sLsy19ieKA/LiXcqVIaODN1KGc0AwpT1QsZGUv7NXN0BrVQuvQIgnWygdbjXtz8ZCpqydLujjU1uraMf+1Jt+cANWB96Ye4/TdJTTdAZquo3nRt6Gds3xfA6Bzh7tetYsB6TuvGWq7jre7YCuRh0vRIjnZOKKQOc5CH+sGrrVb0srnZHMQcoqVcYXMqE5CJc7COc7CL/icea+cxg45xqtvLdS40LONX1o12TXronkgJCa/xKnwrcaZeCveI+Abq+uxfQlp0r/a4D29srvxBtEWR4s+O2xK/b2axcy416Ht/Eaye8xQvwzh4bxs867n4ElIyDe1q/CW5JRaKy1iwPy4jV51XW5esrcQgcEE9zQpfE4B/HhZn/E6oNginQKT67V+2Z1nJspP7bowVX/N92IneHts1dWscht55uvaVPqc5CN/33VXbnWLNj1BdgCPepUON6lcfehYlY5/KwmVPYNBLq7mhBfndRVRybcgJ38sjb+hICFvDClryH4T5jU7W46S1twieKxXo/Dq2xXeWssRsvJZyLqOLEcEG6Dd2RH0+qOeDvs4PKpb5/y80fyDrXKAVn9I5btWmb5ZfSY0/GhahU+epS1G7JKT5qWZmsEZLktr1j9Pmyn3ZyLZPAHvxHrOEJ8mpP6jQonWuX3HYlz96KxVmGe7QofthDPczr+u35PefaVx5FP40azfjbeAamPIT3BwphcGtnp8Fmry/uZYtydTxB5HhpldsIi7mMhHmFVOCv7dgI91ar3CXV4ACFeZdP446pit1vkOtwrbCfF/kIpcN9tSvtZTUez8CIrelfL/DbC2C4vx2L44UjzfNrFAbHgD+Jnnvf6Uj/pZdkAhHABAn2srxDtaEObewrhZSYNbzPZSUm42WWRI/ltYPhaDo9V8Xwzig3oVjkgQ6zLrOnDmy6PIq/J1XX5MdT0ZLU4UW1uKvpT0mx2TUyX7WTBPw4xaN1HF4GWoqL3r94/k+yRogpvrg9sM/tUW8xvcF3hnY0wpjlR23S4nVlFuRX3t7Z7txDvNIo+tV2y3Yas+Mx9ntdVnsk7E07RP4YK1WOxMKdpjZXN8oadDUxxD/7IWRWerB7XlneZkyzsYA2PEV5mGhvEPvEbW+XfaoF+hBDvtor+ZFPb151Iyd2J5IBM5FYzEh6xir5bmVVZo/ZHOzggNW2O52u79vegoktQBw5bO9lq+joW3bFO04mo6TQLdIGBcIOFwAbsCwHKldXvwwK9FxXdnv/JR7a7+jjqcEafjmMuqzmY3VjoVdMHraa/5d5XHZcbHb7poNzdXg4IPYiKfmA7bRxpv2yX3TWbEzr+p9lz02q6wyj/6Xl63tyR9HXRZqHgdXyr1XQN6y7k3afMKFThT1w5c6I4IHtsukeKQBe4Bs0rVvU2Oh5W1U8bH/yd7uvAXZyOv3c6X6fXZycE8Yn+Tg6JHZk90CoHpLYus8jpM3xKiRAvRBV+xiXNDYRjTdF/zRT9ya4r/hQ1RwuEv7P95CBclDQb1xkHXOY1NkZ0ajQPmI9Hgwr7vKiPaanHQrivmjjdnP5kx7aKbgqFcPBYKiCsje0S3NAUwrsRwr/aUVipXgsbIT6COvw2gK2wwjtXgEKIDwwlDFZdJMPvHLjXJ03EJGYj20lfdYoequUV/dNqfzoCLRhJdS+OO7c6HMI7ZfyRdRCfqQteWQhX89Fvc+5k6iAOyLDrzpV91ZKd67SbA1I95cxitJdZFX/PFWJQ0S6mY+dtMMVNuDw17xKGYtiAG5f65lNU/m+xEF/KlXRMZ6lcWbXy4bRZSQUQ4g/zNqBrzsc/eHOLK5nluZnA5dd9oey5376Y7xy2QPe5USS+NtIBqX2bb8c0vqsnqcwYTWXDrCJiZ2kLWyh9wELjBDtXe95LUMUrDZRLczZwxVFsRGXPlMOPHbjvOU259y8TClbx4InggITNQsF0uUVYjLfmOK+WVUPLS8udCv/HJ1F5amrxfAuFV7zMFOjzWXRGThVUffUb9ZxTdDxHSLSZA5KlClQV04lDTM9B7T/IYa787tXXZV6L6+uyAbNRubYus/3DFV17VE9zCwZxXB1q/912MQBqRu2ZHHb1oiO2qkH5dJP6ugwh3M5Hjwur1Y5yxXf4LY0qfZpfkGZWdBjri5dV4VKR9UfO5apZa1qMskVShc/uljROF2VNsGHjgM5b8SJWQ0Gu4KP1HgilNf093xXfgECncJ327B4Ghd/U7v0FVPG7qMu5VAkTqogDMsT7k83b+E8H4YjRjGWzHJDae/WMUeFcLPj/4bAbdirGG6bIBiLvCrMwbV5ld+sFNiyE6zjHgz+6SYPIChnocHx10yKnim6cq6LoU/NHuJY2wgEZFIL8YH/q32Fmjix3YShCIbysP3WHDwrHashmYs3IvnK+6n/FaByP1eGTb6fCiY04jUM1vLBouzggPV09M1ATn149zaLLOdz/stoa8oQB/82Qhv5GhWmzzYip/yhquinHd2Kp48R38OV2ckBqSfuPOAin2ZQOMMXg2LFIkiQvaYX8qSSzO7FIR6KmR9rFAKgmCMZHOB+C9SnqfeXjuV7t3oaaHmySKCE7INf2ab9/d6fZgmb0zc68xpw0LdgBQSh9icMC+MVul/Ffa7WTtSR4IYRHvaJ9kxZhVHgzQriq7kRUX8zwpNXhZxw2Nn+QeCBrzBhwizjpmJ/3sIYPxGcslA/KUStlyiMOyJDzbLmH+E2v/cvbyQFZsUkC8W6jwneMMjvnaTjwuuqK4RReD/OL2+bxpH/1gz9o9uzRKVCPBdaeyRKxNT2fxz1ka5ein/d0rnnzpNEOSM1YfAwhHNudjCwccNg+Jr2zUIVfN0pHomo/0K1W0weSHDCdvozgr3dDnPaPtXGRFqvo+InggMxPqQ91vJ+d6jyeV+33n7XKnzlfr1L2vyFOyI7Kb5w5IYoezev5eX6/UjqAv1/t4IBUHVreLA/HhGJwyUTBgn8DFukKKi5o2OCM9XiOj2pNGj9iZpa2qPe3p6NnSw6J8k2Kc+ZJayBeZcD/ELX/dIDwLqNKu3GFFD6y4gRGPsJix4SF/EZ7tB+KYY4v0idQ0a1Z/F32uxPbEONEMjfDrbVsaCPpT8OHs3r6g15QdvKqpYbjwbU5tV5figt5N6NeAWK4+2Kn12g6g4/0W3lvkwlxQF7UlllFl3E402jHshknIAjxfq/85zhPKu+5MDeZ+1LOKcvLeM7mk+Jky/CtZpXK5vlMmiJXUMvHWMu+g7eipg+28gTEKrp6h067eV7j2FfITrquacRcrRZQicdxnmIefZ3XNW8mFsN7eMc+rzWKyzhzyB6HsrWzA8KbdUbT+1mLJ89kbq5AxuLKSeOZVi9sYRWdyJpnedxH4PeSw7CU3bENHBCWULjbFuh95SSfOd8U5m/M8WB0STt/+DlRkU9ozEYrKpWsYwt0klWxWSc2fETMFRpeqAkBcp7GkqyaC4R7HZSucIp+7oG+wROgt5BVthjVkS87Lb1J78ttSiegig9NVBGplVVm/NestiNK+GsUfrrf3qXh2KEcC55TRoVvcek+B/Tr0dyfhfCYhbC4lfc2mRAHZNVmFT3Uq+yuYzH0GumAVKvaxX/3KfpUJYdd8NXh0+0+5fflMJ+81r/sOlxOHMxGTdbqmebSeISDeFse91I1GMOprXBAar/N1RDZicuNSrJ4PS7ykVNIz4ucZA63y7O/HGKIwGWX8+ljdrKl6YyR5BG00gGhLupzms5k+yev9TnLHU3jgUmTGegc2DwrrZ7l9IzvXjzbAjpcbYv2ja10QLKTGBUfRijt5ZKF407gbwbZQrx1Yro4/q7dP/wrqsEA/Z8pDmRHS1bbyI5TXolFI+3HULXsq85IlmfwJKp4rUnjx8cYojWtjxe5rP59OBkhPNbKUrxjHSP+J5fR41jfpMWweJuDeIvTcZXFs1ZO75GqWnb91GlkLfsAAJ0+N4mjEiMShkYckNq8yj4k4UGb+v1NYsYUY98oB6T2vjzNO4iod2mI+CqfSFrlT3I55fdVNwviraZY+t+kBZQSswWm4Sd55LLUvnOX8Gn72vIZ8nZA+NQ300pR+KKiMOPF6tIHOOeuAe/9T50uhfyrLPpvc0npPJymWrz+L+1M2rGdHRDUxJUlH80rVycr85qGb7F2WNJkeKOXk7JRxzvzGEcE+g+XdG6VA1ILNbzHKPp8T9faT9LahtnJ7E6T+lcjhHvqEzLvwcl1oKvieI+zQKKF+IbuzcIGToejuHZxq/ted0ZqFWEes4pOGF+FlUXrutT1WEUfcFA6rSrGVc1jWFE1og2eyZrGgv+Jmt4/OM+iVXCyJIs6OqBHV/8g+zHqPHCoIueL9BSCG09yo1BFHJAV69u/HIRPzhvHEXqjHBA2olmsrX8EauxjhQ0xp+iWoarqjX2HOX67VkWsJdgCfQAVPehzuRe6znaFXQ9KDlq/mQ5IFpqt6AwznbbLe3ywGBY6iOfneVqTNaBPcHh0nn3lTUWf+v2dopvzyD+tOSDn9hWR9S7a1QFZF5V/f67h7kBP24J/3WijRHJiWlYNCuj/s3clYHIV1fomQmb61qmeJBgCgkQhbAOZmZ6qU1WnuifNFgwKik/igiKobCIqICiiGBVQUB+LIm4obiCoKOKKIAiKooCiIIvCQ/Z9X0NI8r5zuzuZhGS2vt19u6f+7zsfQ5Lprq6uqlt/1Tn/f5FLQa3O8eEC0BdbeQOSGEbn/RZRO0HFbhCBzq0NxkZ0TMqRqCYkHS7p74N5/3bkRQb89Vlpf01jXks6Oy2JRxTF7TCmo1HQL/nhzKcvNam1LKpmDSMgH6qqL7QcvZGbacD+hm+qUsn9TB4c/no9xgK0gJERCEiisHa/Fu64ek+xGkVAEGipAXdQ1EAY4XdMfy1y74xaCNXtilxAXu+4rhSBu//yulpeZYLbTALyld5oUeoeSNtBYVst6KtpExD2cOJNe5ptTfyhciVrwF+VHgFxFxW6R/ejaRUBKXS5ubzBTms9YWEGI+yfSl16TPK1jQIKOgmlezKNuYHS/cj09L262QSkqqJ2qxbmfVGb4WVamMOyfJI+6kAWxMzvOvZryMqmZZVfhruyHgfutYElGFWX2oFrGrgAHyU9xfUolZoUYt+W5Vnpg+S/QCe3ugZkGKZgj3sjSv/XNBbSqiLMHSyNGdzR68ckJyDLNLhHlfSHp5Ha1CACslyL4m+0pDGbzo0XW0dbS4ztASkeqvA6fMdgnLiIJ2Os2VErfLWCPlm5ua5vXeX5oQWd1TuKKWXqKVgVP5rPNOZ795IPEtP0aOBg34MGNHcKz1Ej/cWU3g3Ib8ciaNIqApKI7YD/RXp1TPSkjt3/8rzg12/2nKxlLKAs7mskXV3vvKT8ENeBXKEkva7ZBCRJv5L+awrSv5lsKCyrXgn6Qwc87LkYfEkG2vGSkyqK0k8/4lsVPiHlmwUrijugsEcoQWcZ4f+SmFVJSlIleFKMN/hEhwd0EtW0pHrGB4K/UgnPEp2ZQeLIDPWbbNbSZSzQxwMBqR+TkYCsvM0V7qaBuLjb5nX4KjSSgNR8GhD8AfOieQ1TV+HDCg325NSKXPlQRtCfTM4dxPWCRtBOzQ+/o+2yO/DNFssq1/09ALvMu0tHc4pOXQUL2AzRfaJBXz2n+ByRXi1nssldMShNqvUfq7B4KqdNsYLVZCAgCH5/lP7GtGqyDPjHUdgTXM7twebArZiXGlxZQ+kQDf6yeueIqxj+/VOBP7jZBATBLbVxukILDcWKaMWUUjRvBhdzIySn5ivaObKYglQdkA/pacXd1MYqbtR3yRtfJiKcomWhWNKx3U2B2Qvj4r6Y8wcbWTwMpT/CSH84/2xy7lALdKCD4nuY/bNHhxH0NpR+Pwt0CMb0ERT2JJUUv9MvtaTr+HPwCcFETgmQ/TKkP093l8pRRpCoREj/x3oWnYSc8WZC0PlUOXkIReh1YjIRkJonjRb+YS3o2/2x2XXOKCk1rSYgKP2zOIY89XrAhl5G+J+k2NfLWU0rUbwB+lNSRN2CMOCvROlvSutzoaD/sClcMwkIgl8ylkLbiQLBH5ymmAwKegpzvmHjFQVdkJawQNYJiAG/mG8tUpyXLyTzAfxfEejPLZqXf0bw16H0D9T7vLEVUvVfFPSpJhMQlt29biJS7S0DXz9hzh3MZiVpucyGWD1qztsmdl9g2b5WfddMUPjGhAvnxnJKzyleJpq3aWF928fXrkq6d2pwx6Cg7yDQXeMle1XVnGdR+B817jRqfLAb2tkGWBqzYhA23sVn1WeiC1mprNWfp1MwGQhIZbwla8NSDXS1zrlPcx1e2n2ZNgGpFITTDapbrfRhagR4PnFufdp9zv0wkRvhNCOt76JCKOgh3T2UpK80j4Ak6b5j8iCZCLQsvjtNAsLk3sVDqc+tGrggf7IQEAR3uoN01+RKpkXr52TtdrfufhT0qBH0jSYTEHZi/3ZB2L6oXcAPEQ3u7wYoczcHnRKVE0O31IC91sd+IGpzsEu4lu6zRrJR30T6gp5nwyEn5s9rkerFarA9VhlJ57Gs83hTOlC6B1i3nTd5rf4cnYTJQEAQ/PMo6S4UdFEhLi1MS6SikQSklrNthf8uxuWGCkqgYFER999Wf0/toARp45IaaS1tDAHxR7QLAWEfLdVAAsKHaon60WQgIDF9LxxW+9H6cSkfSjaLgFT3VS+a2BypYlXzxss2+AGCef8xXpg69SGfqQBeCN3eo0kmtgP4FoVzQROZ0AlMFiPpeS385SrvEg+XVoNNyTgvWwPdP5a5UNHa9ner2B7Nbvetbn+noZMJSPUBtUQL98vBHL6Rbxob2ZdpEpBKOikbhtmPlVJylF4XEPx7UdBzrf6+sn+77p8wsd91JCWsQEACAUmBgEzZXtjZKP1PExW0DIz/rIZNDAn95U0mIEtNzryhHM1JLX23oeCCH06lyYpaUudHkjv9Uwdu1MWlHVCeVQYDtCfXhtQmwbjGEiRmjRfb2L42ygBI0IYmpn2McFeO8eG3BIW70nW5ua1ue6ehUwhIxQuotIILVKsPiRsR6BTWvFd5tQXfJja6L9MnIHSvBf/e0Qqf6wWn+LTzd9+c8ZWk8D2pwL+hb/aCdRLZQEACAUmBgEz10m9twP+6mWbP7RhOllZwWm2zCYjudpmprx0RLHnGJ76pqWKEGEMkE/xpA/7DUYcgqSkB2suAu8SAXzKe8VS7NtRAvzbxyJJ1zUI5KoPJ0Z5s5MNtG20DhEDPsUO9E47TyQImKQFZZTxaUY1Lcop5cyjoUQS6hv2VuCjRAO2lpd+6mUIFqRKQisvuXU74tzf65saA+2hI9Rh93DEZKIjSW+fOXLhOQhgISCAgaRAQ3UMFI/0lgYD40b9HSf8YKS2yESlYOqZC1A4YFO7tCuiGdni4d1KQnM85u79upH5+K2DAv8EA/dLA+Fzoq4o6y7V0l5Mc8lmRsMUcahT0Y5T0YK2d62p/8jP4L5ieoRGNh9gHxm/gZXlOm1yRdigBGW7YOf4orYyaNHVVfeQ5A/QYgr8LgW5GSddqoIswplNQun0HoNTbKnW0tAlIovASl3ZP29doTRjwnwgEZAzrJ9BTOi69a94IKXGBgAQCkgYB2V56QkmXBQLiR/8eJf1rpLTIBhCQ5/skbhVlHSpSPexiGhb35kdNu93E6TmjZwVmuhlC4X48wT5ZakXx6v4YBzI1T2L/ZZR0z6iTH/yzGvxpKlq3zDJK3EoJtYA9CLJQfD9JCchylPQcy8ga6Z8Zd8DKeDrZ+AHdb4BuMLG7xAh3FsbFozkdZuDldstoccXgqtVIn4DQbRpK5bnRwlRdpdeEkf7TaXgrdHJU186n2XMAJa7TtDIQkEBA0iAg/cLugJKuCATEj/49Sn8Te7Q1jYAAPaZ7Si11kx8TLJQOROn/Ua/jY4i68qjvHMwXP7rppo09RWw2VKwGNdhzapNinH3zAp+uGGGyYlY4hX1bEHB/lHRNcns1wgJgJN2nwZ1WczxeE7pHF1jCkE/GG+kH0wloBAGpymE/asG+10h6ncuXFlpZ3G3s4V+LAnc2YIZYPKG3qzC3kCu8ogSlWbz5Yy8GdqTmjfm6xkCHEJBbTbcf4g1QI9uNwn4qEJAxEZCnFBQPCgRkhPYGApJOCla3KxvhLw8ExI/+PUp/o4nWXSeXtgyvBnrY9JgRszBaDh95ieAvrJgOhvSrVsTKtI28/7cBWtToVIYmY6rOaTSSfsgnzdVFefl4CqlQugu0cLtEGUG5pzzdgHkDCvcjA2v3Cqmk5yQP5jsGYzqSU62qv74y7SZxqmdDR1atEe7QYf8moFkERPr7bWxV3+w+sXDuwi63qcuNJ/jWspom2DZmk+1KQDSYkII1ljWTyUDsDwgEZIT2BgKSCgFh/66QguXH9j1KurF31rpFRiYdAVkQLRBW+Hdo8PeFhb2lsbyWU46Cfq9zxf8ZKVewjbBqsw22pKX/EZ/OjWdxrEmUoqTzMd8459rxYnEUTVXgijq23+erznWRkGQhEHSrlqV91lQJsuDfZIS/snpqeYMRPis3PZOGgPAtVQEK20aTCO1KQBDo6DQ2dZOBgAzGdr+RZJEDAQkEJA0CMjDd9KP0FwcC4kf9HtmslQ+51jlmJhsBwRg3MmDP41PARAKVdYPXKMps9Rc32SIhgrG/xORKezY6p7rZUN2uiODOqY2zsUZ1HD7DksU+77eIMoTeqHcjDXQWb4zX3f4Sa4Bfg/ni3sN/1wIdaMBfnyglVRSSvtpWrqUdQkC00NtPphqctiUg0h8Rnkljk+Htz7s3jySLHAhIICBp+IAMSLulDjK8K0YLHgts8L04Wncd4OQjIBI3UMIfoQWdgcL/gk9hE1fbQEBab1oD9I9CTO9qp9SOsQBjP2CE+1btc46nT4z0z2rpz9NSs2xplKWULC3dp7n4c0S5UkF/sDn/puEnugh0z6p+cMs1uE9kRfkrSwgEJD20KwHRQIegoCWtXp/bwYhQC73LSN9HICCBgKRBQLaJ1cYo6YJgROhH6UvOhHBNMyJsCwLCG50BKM1yObcJV8sT0DasG2x6/I4oPMvyfoSVfIykHxugvyDQ3Qh+OZ/SB7+QRg7WZIO1DMH/20h/ohV2dtQ5mEKCttfSnskyceOpCeFgdSkb26/ZjN0U2Gj72TpnD9Exy/S+lLzX/h8FXaGhYg6EPfQZ7oPav3HJv3HXK3AHt/rzZA2BgKSHtiUgwr/DAN2Z5lrLY4A3eZ0SxXyZx/QyF7sRN9eBgAQCkgIBSaBjOnskQZbxR7Hl8yjN8Pn5lWcN+N+MOGYmGwEZCVyDoGK1cQHstig9WWlfi8LtbcAdhDEdjZIuXlfue4iUakLySRH2PUbQNzCm13DRa9TeWHmbMxCbfjZjS2pCxvEQrExkx2ZuJ6uMpWNhhBuonDvUSLqRTzzWmBvLqw8Fdnv/pQLaBoG+N/zfrCQpQL+1cv6WnXb7VQ8CAUkP7UpAMKbdEegvaYil1Iy6UNJFRtLXUfovWelPb/dA6b9mwX1+J7HTiIdWgYAEApIWAUHhvuwgvX0ggnvMSPsVI+mLRvovt3pO1RtGFs/g/QrGfr8R+zEQkLFh68hLPsHmDxikexsbCREBTsnyv9OS9ink3VwVqfWjDgACzUfpfsr1R+PZVFYX5bu0cMej3HmdSi91YOpaYqxkYAoKewQC/aNGJNcmNqBjOhmBrltzA5Ckakl6yAh/XDlat2b4ZEMgIOmhXQmIAT+kgH6WFgHhwwAj3aft9FIfF2zbDXea3e6Bs3Cjvtm04Wiyz4GABAKSFgEx0h1nIPFRSuk93Z06N4B2QzubZtOG7T8nyxtxptHcESR4kzETCMjo4I5UYA5CQU+E24/mRbVI+Wkl7Q/7oFhiUzxWYmr3U3IUtDOC++X4F6oSF3U9gMK/3+XdzDG+3RR+MDOB4wJ/vuVjyWM2C2S/BvZv4JuHwvRS3/AYmF7sH5hZ6i3PKm/EUrlq491j9u3g3+XXGCbFunITq2LHXiH/XOccgZFrYFDQg667VMySf0QrEQhIemhXAqJFeXuVnIimdgOyFAX9jNOOo0mGQEACAUmNgOTpfUbSbWnMy+qa/BAK3HuyydJjICCjYn0lzNuMoIfT6qQQ44vEtVn4BzF256qc2au/A07JKzch/rK13BiMGBXZYv+IieklErdrA4kFGw6CHypIejffnmhBX9fC/dQI9ycE/x8j/b0o6cG1h3/ASH8fL+4o/fVa0h80397E9EUjiofqHr2L7tavXO1z5d2bUbpxL8y1zZEWdIGZXuxvaOe3CQIBSQ/tSkBKUWmGEsVD0xRIQXCPF6TbI5pkCAQkEJC0CIiKzeswthenMZaq8/ppBfbbesbQas/TTgcGAjIyVI720kDXhJuP1kXl4ZtILT7BEq5G0M+M8KzAtIjrCqI2VFDiGwnTQzsZQVdxXvZYx9eqjQjdaKR755qpaXyjoWVxNxXT0UbQtxHoIgT/F5T+JgR/twH/MLJyFdAyfh1etGuSuCOFqeWPAz2N4B+oiAXQ1QjudwYSw8UTdK64BwrcToHZE4H+jZLGRa44EBKyeYSaoXqiSY5AQNJDuxIQhsn7XWtzP631FCWdpLqLm0WTCIGABAKSFgEZANPLEvJpvGfy3UhiNcgHlDCTyhcLAwFZN9T6bhAFXRBqPrIRvDgkKgv8fQj/EEr6o5Z0pgF/DEq3rwLak522bVxSBkq9tsu+itXOEtWzfO9MF/XOnNdTmlGeVQZOJ6pFf9Q/nf+OQ4F6uYqHNi7k/Cs4TK68KQ/oWnARuJZ+a9WlttA9aAPE4QAAIABJREFUenM1o7gZ/3v2l+GC7P6e/ulV588xkSLDt2tAV69NRWqkoErdxBUFYd/Cn8n2lJSJS/twMSaTDg1018r+ylcU3DhWEZjxb2aGS1WvpqQjkwfGoyj8H1HQSQj2AA30fZR073jfI9kcCPoTGxZGkxyBgKSHtiYg04v9rISFkpals45yH7jrDbj3RNlBw8diICCBgKRFQFgcR0t3VJrKqPzeCtzn+7qys4HmVOtGvj4GArJ28CYShf8WL1jh9iN7UdsEu2QTnGyqeOG4wwh/uYnpXCPoDC3Mpy37TuTd+y3YAzC2Byjw+7M5nukpLcJ88c0cKnbv0bE9kGMQ6BAj6Ugj3VFJQPGjRtLxlfDHaelPVOBPHRTuRJT0GZN3n+B/nxRh59zBCtx7VN7traXebbDHKr6hMT1DrzY5sykJ2pDJAtdRRMPMeVyueCgKf+N4x1lF/57+ovL+YAP+h/xArJGNZo/Z4aQk0eSXdCaCux5hleTumF8LEl3/c1SkXh5NYgQCkh7amYCwXLwW7kco/bOp3YIAp3LSj+0oylHNwIpoxRReKwfBDPGBUaPeJxCQQEDSIiAMBWYvhHQ9elD6//IeIsoAfORlIXYLuV5s7tzGrHMYCMhLkZyQg9vfgL8zeH+0VSyvxjLWha9KTjYixvLaS6spS08iuFsR3G+ZFA1Kd5SS/rVr5nraXGI49uhEPjO/T+Uzt7z/h8cyrlVJ0r3G+bsV2WG6VfXYj4zkotrpCAQkPbQzAeFDCwXuIE6fTOt5VB1PDyjpTm+lCSiTj+RWGfzPNdB9GLvTG3XqGghIICCpEhBprZbukvGkUI9lbdHgfjnYZXaKWoi+qE8kB7PgHtDSXVbI48JGvA8GAvJSKFmyCHTzeAuEQ2QjhqcKZSESksCSfUCPakn38QKHkv7BiyyCPcXkzKLCeqjZBV4JemSin7fV/b5mm2pkbWK/nzzgry107zin3VXPJopAQNJDOxMQBqd7GnB3JOmnKc5TvjVWgPuXoznd1bdq4lxbPFULtwsCXZqYrfIYB7oHBX1uXlSakXZ7AgEJBCRNAsK3dSZ2x5gUCUjl/f0LKNwFhe4CP/uaDk5d1zk6ntM+V/p0SbrYCrtD2u8VCMgaYBNCDXRWbTCMx7E6RIh1xfDaiaTwO19Jk2K1KcNpVOC+q4U/E4Fu49uTVre31VFJL/NPKUGfGofkcEchEJD00O4EZFHUO80AXcgiDWl4gtTWpOoN6nUa7IFcJxc1Cf05t4kCf7AGumzNQxQEuleD+6jfwL8izfcMBCQQkDQJCK+ftrtY0umm6S+vCO64J1G4b1lR6ouaCCPMjijc1xD8XbU9SnW9W4LC/cKCLaV5YxoIyDAsjOZ2aeEOY9nXtDokRIiRYqUSVfKgqbrAJ2ZhrW9bq/slSeMC919e9KJJiEBA0kO7ExBORUTwB6Cgf6WxyRseiYgE38gK+wEW3mjk52AJ9cF4UPHBghZ0C7/3Wuc++DuNLB7Jwh5pvXcgIIGApExAEo+4Comm59PMQnAJIfds3nuGhlJZRbvHUePwMt60a7BvMuB/g0BL15gjlUwgSLy8fkCSfFrPjkBAhmEwh2/Usbs81H2ECJEd+WUt7UmFrsLcaJIhEJD00O4EhFORtoLyyzXQeWmnYa0cF4IeNJLO0Bv4rdmoNIpWTElrHPOpKSsFsn8Rgvsbb65Ges5WNzy3a/DH8AYpjXYEAhIISNoEpC9aIBQU34NAt6clyfsSQRbhrkDh9u6bvUCsKbtfB6bwnNx4443jQq6gTd6fxvWaoz1nXCIQQ99TOWfSaEQgIFWUo/J0HbtzspZLHyLEpA9Bj3JBXDTJEAhIeugAApIgUdsDl0hsN8z0FehWzNEnC5HdNo02a0HbI/iPIdBVTACqohljaE9CQm5DoGOj8thkzUdCICCBgKRNQBgLZ5q8Ef73DTy4XsamwAj+FwS058Yp3IaUozIY8G/Q4M/R4O8eb9YPCvoxq2PV245AQKow4Bdz0U24/QgRIov1IO4HukfXveC1EwIBSQ+dQkASDyLpvra21KU0olaLwTngKIh9fb7KipCFbpyPcXmj0dpnZpr8wDTTW8i5PVTsPqyBvoOS/lD1MXmRbzTHY7qa/MyESNIHSj31FaYHAhIISCMICEPJ0hEI/j+N2D+urI8C/4yR/p9a0gU6dottzr7egOkdbQ3imw5OrezvdkUd07sQ3OcN0K9Q+n/WbCbG83xxiUqlf8YIf75en/g5MmEEAhJFU9m92Ui6YbVFL0SIEJmISrG+v1tLd1w0iRAISHroFAKSfBYg9h/gWrEJGYqOdZwkG0FJS7R0f0dB5xvwX9Bx8cikFkUW99WC3moEvU3HtA+bGhrpD0+8kgR9QwP9VicbuUp/TdSbqLI5Sm5mbuT3Lff0T59ovwUCEghIowhIX8/Qq7UsfqNR87HWNq4VrRAAd6+BRAL4TIzpWC3ofVbSu1C4t2vh36KFfwfGxX0R3MEY8+1j8WQt/I800DUI9DgfYPBrTfC5srzqQfa8FvYb1WfJxMbMZCcgrMaBgj5TkQEMtx8hQmQx+MHGKRw0nSaNLG8gIOmhkwhIP8tkSs9GqKkWvo5Uh8WfmTeGteC/00BPcN44Ar3IRbO1v0s2SVUFnfTmf2mFBboOwe3f2zsxn5BAQAIBaRQBYSigRVrQjY2cj2sTr0nmnZyfFK4juCVMMBDoBQurDhJo5ZxMbV4ur7VDg/vCREnIpCcgWpR2YcO0ILcbIkR2o7pxvscK+qTfwMtoEiAQkPTQSQSEgRK3QnA3s+FqI09dsxSVfvf/tFA6cCJ9FghIICCNJCC9Ue9MnbOHJGpRcvKETdYfOsPn/RbjHjOTmYD0x35ACffNkHYVIutR8xCpnGbMT/5MC/o/Leh2C9kzIlxb23VixlinxLCgW0pdpc2jSYBAQNJDpxGQclTuVkB7sm9Qo+pBsharctXpBhW7d7rI5cbTZ4GABALSSALCsNPslgbcWeybkeVnctrzEoGeQeG+W+geX4bCpCYgihVFhH9ksgyUEO0TtSvWygOoWhQKdBmC/yYK+qQGOgTBvVEJtzfG9CUj6KFaukSr276WAvIHdGy/ooTnzfQddoIPimoh3hIr7QfLUH551OEIBCQ9dBoBYWwauZwSdIIGf1/FR8h3fFRSSJLC9Bu0dHv0ze4TY+2vQEACAWk0AeE1W+c0crqwkVTxz8jAvGl0uEpNyJMI9B0StOGYx8xkJSAFYftQ0M+8rJwmhwiRlRO+muJFUsQJ/koE/wMLxY8r8G/gE5Y1x7LJmU2N8J/VQNfxBj0LSm5Vl/flrAyihTtx2+7CHLWetVq4Kya6WaoWo79opLsageZHHY5AQNJDJxIQRp/ErRT401HSM5Nls1NV6XpCS9pHzVA9Y+2rQEACAWkwAVl58j8I9gADdG3tNSfFnJR+OSvnmZnlTcc8ZiYrAdGCTkKgeyfD4AjRHsEylSyGgOAfQEG/GszRB820Uu+Yx3S3fYuO3aVcFNrqmiaUtFQLd5MGOjBavGqjq4G+X++cq5imucPHm4LRbggEJD10KgFhFPKoOf2B/QJavYY16WDjQR3TyexCPZ5+CgQkEJBG34AMhxX0QQN022TYY1ruN+GuHBClXcZjljjpCAg/1EuytJUGd81kGBghsh2V+oihFTrvl2KerrLCHmGg1Ktm7NLDed48Xscxul+mu/TmWpjDDLh7WpGSVd3gLkNhL8RuT6xBPryFVtgPGeH+W8/cS3439pdgTLtHHYxAQNJDJxMQhomL/Vr4nxjwL3bqc41rXVDSPSjphIkIUQQCEghIMwnIwmhuFx/AGejsNH/i/Yv0Px0EPzTeZ8qkIyAmMnkD9L8o6NEspKqEmJzBY49TkVC6BwwUzzLSvdP2lJQVdna9Y5xPBjHG1xjhvozg7lmpHd7Az8MLbOXB4f6Lwn4SYxxYG3kyYIaMpJ/U+7BgmUEt3YlRByMQkPTQ6QSEDx8w9gMo/Zm8ye6kwvRkbanIcP/TyOJhhQ0Kr5hIDwUCEghIMwlI0icSNzCy+E4t/XCfuY5QXLUVQ8IVWtKZTD7WPGwcU/9MNgJSyKGuDDA/aQqEQmQjakZCyf+Dv82A/yFK+pCOqdAIbwt2SUXh3q/5fapXwRM1BBu1AE3SEpT0ezZEYm+ddbWpd1YvYJ6OrfdhkWywwP2mX+B2UYciEJD00OEEZOXagT1+wAB90QDdnbYXR2vWzGRtWabB/U5LendpnGlXwxEISCAgzSYgjN7eRdM0mwRKuoJTk9Poo1bPSVMZ/3fyWsP11FG0YkL7l0lFQPqj/k10bI6pDbRWf5EhJkesGmu0pFrf8XsT+w9TRbKu4ejtLm6GMR1twF3N+dO8CK6StKzvc6Ek/vk+BLpQ9Zgdx9IeA7SIH971kx5/u877T0TR4o7cSAcCkh46nICsBuouzDGxW2x4gyDrlL1u6ZpJyw34hxXQxXqG9vWO10BAAgFpBQGpwfTQIgP0KwP0ZKvnV5398xyCux4FfYrTxOvpk0lFQDCm11SdKjviCixEe0R1o86T9krdbfbpi/rGLFOXIqZSRBui8Ecg+GtT+1y8EZPu8FJPacZYG8JpWFq6S+s3UWMXVrrKzDT5qAMRCEh6mEwEhMECDa7L7aKBruXbyXY7cKuuLbdr4Y5TFcntum+IAwEJBKSVBISh8moLHtMI9HSr59jExrxfrmP3o0IX7pxGf0waAuIjLzH2H2u3hThE+0blQccGfHS1ztP7Cnk3txyVoZXzgImCln5rLf3rUbrTtaT72Zej+uAYMzFH8I8bQV+nbvLjIR8MK+2WCtznazcx9fQvSn+3ydGi8qzW9msjEAhIephsBITBp5MDnIYp6VOsxsMbuyw//2opqgj+BZT0VRS083jXlpEQCEggIK0mIEykMS5vxB42BujXBuiFLM/LWv1VclAI/ion/Nt1V2nztNa9SUNAlKTXIdClaU7oECHWFrU6CwT3NyP8iZgfeo0ClTHjvEUv4xoRlae3KaDPGfB/HesiiFx4Jtyn1+ZJMhb0RmUYFO7NLBtarxoWSv8sCrpAd+tXRh2GQEDSw2QkIDXYHvsqnfdvMZK+wr48NQGMLGx6anVpybgEd58BOrcgzKFa0PYTzStfFwIBCQQkAwQkARdsW7AlFdNHNLhLjKTn+HNXxmYxE3Oy8j0kz9crtPDHmbzfdUE0duPPsWDSEBAEOgUlPZuFRTdEZ0Z1Q7xMg79bg/tFUjSZ4gleozAvmjdDC3f8WB/MCH7ZQGz663lPvT5tb4AeS2M+ItATRvgx1Z+0KQFJpZ8mMwEZzBmnBP24dtpYTySbQvC3YzfNbwcCUoPuHnolCvqQBv9zBLqZN+OrmZ82cZ1cdUhDz2lJ/8ebMFbPs7FVjfr8/esXtzPgn+YT3XrHQNUM8Vkt6chGtVdB8T0+Pz+VtlZ8Gvyjg3GpYf2Lwp9Psv728mdG8L9TUCyN9p48/wa7B4cM+LvTmNsVIkx3oLQNI5arY9E0Fftdkxs/oD8j0D0GaFltfjRrXg7//Cz6wM8IPpRE4b/KtzVzG5TmrGO7mxXu6tTGONBjWSMgU/k0xUh/ebj9CNEEI8HrVUwf3ybCDaI2Aub8wWOdHwi0TEviotAJoxyXNzJcvyF9XfnpKxefHH2yWUX9zUK4AUkPKueMBneOyXM/0JK6InkNf6PrLhXbiYAMv4FkIQgD9jwDxAIST6Gk5ysbj0avk8l7LGHiYYDu1UAXqXzx0EJuYtK640Fh2vxtjfQPVdtR3xiQ9AKCf0RL+mCj2jso/X42X0ylrRUBlOI9Op7PiosNAYL/QWWdqq+9/JkR6Jco59No78nzT3drb8D/J5W5zeOTyXnevT9qMuat7+aZnPs0CncNgn/KgH+mSSISnHr9QvJ+4B/nlHEj/Wcx53WjP7OJ/a5GuD8MH6cTno/SLUVJ9/KNb5QV8FWXEXQ8At3dbFO2EJPp5oOWKHCn6lgXFkXRyxohq9tI6Bwd0kwC4vJupontFxHokTTmJRf4Y94tjDqMgGhR/AZ7xWBCcP2SeqM6Vu/k0+BOVQ9bG3yX3wJz9gNKuPMVuB/UFcKdj+BOpWm0zUS07zOAKexWzGZ+Lu/mqti9E4X/ZiIoka+lkNZ7ArvmyfLQimQzDe5OI/k78O/Vorw9125VlXQaPhb7Z+60iQL3LSXcj+seA+DONXn/LSPpdY1qrxJ2ByXcz9Joa/JfWfy66Rlq2Okwpy2hdBekML9+qsF9lA2jR3tPnn9a6q010JfSmNucpqnBn8Yn81EL1nueC1ZsP9t0myEdu08guEsR/DOcXjb8VmSi83LN254K2XNPGqDL+AaSn+u9eTfTbepyzVjbTMVA9bjVxumEx7g9Twn39T7REpGftUNF6uUI7ho2TGl1bl2Izgp+qKL0yzlHErvd2+d16c1XtBnxaBUB4Y0HgjuYpUJTyckGWqZy7vCoszAFRXE7K+wOfFKkRWmXeoOVABFoPp+CtxtJrgf8YHc5twkXZRfAbltP8GuovN9CRSruhD7s7+mfbqfN35LntIbi/yhhjzDSfkWDu8hIdwNC8QFOu+T1gdNjOGiNqP25T1Jwkvn4MP+uBv87DXSWjt1HFZi9WAEPBW7Xipq4uXMXdvFmNY0xwMFiHnyQ0sjvhed/Gm1Nxq2cv2V5Tn2yqSPBzXSbpNHeflHcjtMFeRM8hredojZWMQu8pPW98txu5Pc6FvABAa9XbC6qhF3A6dwo/GcSTy9BV2lOAQX3VC1lbW3zcvifJ6lVQM8g+NtQ+Cv5dZQsnqCk29cI2om9yEzObNrsA5W+2QuE7Sq/Kr0xbrfkvouygL5ogXA590YE92i4/QiRVlROECqFqFrSN1hRqt3TWZpNQHgzUOgp7WyAbqEU5iZvfLSgM1W32iy9XgkImHxQkeqxwvYpaV+L0u7H0t18SsmqeUbSNwz4bxmg7yPQuZx2wz8boG/z31nwp1tJnzGSjuTf5fxxTuXgg8Coc9EIEtpIYtv2pHkSYipv1Ae7/ZAW9i3IN4jgjkFwn7fSf7WaqvsdA/5sLdyP+L8G/LdR0pksPmGA/leB/5iB4kEKaK8C0PzC9B3ntHgsTIk6GYUuN9cI+rEBeq6ZRXYhOjsSIx7hbko8NWLcKOoANJuALI4WTy107zhHS/p7GrVZfMKjpbtaSffO9HolICBgrWnNM02+T9CGc6PSLBOZ/KJo0bRWtysgYBJjypyo3N3fU56+ZdS/CYvfLJy7sO3q0zoKGlyZ8+davWEN0RmxUvkE3KWqRw22af53JghIDSjoD2mkYNXqcPhGKo12BQQEBAQEBASMG/2V/LlgPBgilUjMeIS7wwr7SdVd3KyTyEdLCQj4H6D0L6QxTymfSAheQVFhDhf0pdG+gICAgICAgIAxQ0u7mxHu8kBAQtQTtfGDQBdibPcb6kDDu1YSEC39iSj9vWnUaCUmWEC3qdi9p5HFlgEBAQEBAQEBawUCHY1Az7d6AxuivYM9GLR0Px2c7oeiDkbLCIigD6L0N6ZBQKpGRE8pQedzjnoa7QsICAgICAgIGBM4RYZVAILxYIiJRsU5lh5E4b61eUTZ0ZXuMAJiYvdOC8WrWec8re9OA92tO/SmKiAgICAgICCjsLHdzwBdm+amJsTkCgR6Wgs6qVrr0dlycS0kIFba12vprnApHRYkKXPg2dl5d9aHT6ONAQEBAQEBAQGjwgh3FgI9G+o/Qkw8iiu0cF9fFPVOCnnJVhGQAXBlA/43ad1WVuf880rQZ/p77KvSaGNAQEBAQEBAwEiYYoWdjUBXhduPEHW7nAt3jcqZvaJJgNalYBX7jfA/SZmALNXC/UlJa9NoY0BAQEBAQEDAOuEilzNg9kKg/0srpSPE5IxqQfOzGNP5Kur8VJ5WERCavuMcdlJOu14LpXteg31T1N6YoruHXqkFbY+xH0gjdEwFFMXtylFQCQsICAgICEgFKHEDI+nrrFwU0q9C1Bt8i4bg79LC7dLpG7ZWEZDevJupJZ1J+fmpf3eDsfnonKh/etSmYC8TDUk66eNprWds+ojSPaCF3j6Koqmt/owBAQEBAQEdoX7Ftx8oqeWb1xDtH1V37ecMuJ+bnNk06mC0ioDM6ynNaAQB4e9OgTsXpaeojQkIAn0HgZ5k4sCfqd5IDDUlPaSEmhcISEBAQEBAQJ1YGM3tMjG9DiU9H24/QqQZCPQExrh7OYo6yv18OFTOHTQuApInTOV9ofxyBP/NtFOwKuTRXY/S7he1NQFx30rzRpeJjJF0X7gBCQgICAgISAE+77ewwn3eSL8sEJAQaUXt5BgFncm5+FEHgomVEf7wcRAQvhnaPY333l7Y2RrorIYQEKDntXCfjtoUgYAEBAQEBARkHFbYHQy4q5mAsIRqqzeuITorEPwTGPv9o87DFBW7QS39mWNWjgM2+7NfKky3ffW+Oca9G2mgb6edgsWRpBsJOitqUwQCEhAQEBAQkHFg7PY1ofYjRIOCVdUQ3HerG7eOgRNuFx273463P7jOSgv7DZX3W9T1/jm3CYL/Tto3IBz8mph3vzQzTW87mkkGAhIQEBAQEJBhFHL+FVrSScH7I0SjorpxuweBjo06AH1Rn9Ci+D72zEGgJePd4PK/10BPKOG+2Turd6OJtqPQTXMMFL/XCAJSUTGja1AU3xwIyGrjOBCQgICAgICAeoGCdkagCwMBCdHISDa00l/c12VevTha3LabN92jN8eYjjbgb6jUuCTzZvmEJF2Fe1RLe5KK1cYTacv2wvahoPMbRUAM0J1G+OMCAVn1nQUCEhAQEBAQkAJU3r/XAN0cis9DNIGA3DXY7Y5pT3PCxVNNz9CrtfSfRZHOprYmVazBHtInaMPxtkiJ4gIEurgRBKRaiP6cEfSTKIpeFrUZAgEJCAgICAjIMHSeTkZJy1q9QQ0xOUILukXNUJtFbYXyettI3ArBXmgkvZCyUMNyBHqapXzLUXlcUsWY92830v+1sjFO/7vi19VAN/TO6oWozRAISEBAQEBAQDYxpT/qn46SUzjSV9EJEWIdJ/5PG1k8jGaP/8S/FWAX9wLo/9FAV6P0zzauX/xNBtxB42mblu4wlO6mhhGQipv9f1VOmd6od1rURggEJCAgICAgIKMPaA2ubMBf2YgUjhAh1hHLUNJ1JHUqbuCNRAHstgj24wh0Lbe9UWmKldfloD8iuDeOtX1K2hNQunsa1a7ahrsQm338Bl5GbYRAQAICAgICAjIIFan1tfRHIfh/hwL0EM2MSvG2/ZCZafJRRueGkUWnwJ2OQPc2g6BXb4eWIrjfqWm0zVgKvzXYbyPQs40kIAj+ESXokwNQmhW1EQIBCQgICAgIyCDmROVuBDqXTeJCAXqIZkZlvNHvtbSvjzKGck95uuoq7oBAf+b6jEalN62zX4Ce0TGdrLqLo9XJTEGgS6sqXA1rDwI9hcJ91+TMplEbIRCQgICAgICADMJEJq8F3RjIR4jWRHGFAnNqlCHwph9jOlaDf4BvI1rVNxrccyjc3i5yubW1k2WMC/nyXJT+ukbezlTXhiUI7kpfp2lisxEISEBAQEBAQAZTTFSuZFHS/c084Q0RYrg7uhHuTzrn9mjRNFgtxQlFcW8UdAEC3V9JEWsdMa/cPLhr1lUPojZWsRX2LQj0f82YvwjuAa6HidoIgYAEBAQEBARkDPOi0gyM/QEG6LFAQEK0Imw+STd6SgN9f+HchV2tmgsFYfsU+A8b8H9F6ZdlZT5UakLcOXoG8WZ3NZR6SjMs16cIeqTR7a3Wpizr73bFqI0QCEhAQEBAQEDGoLuHXmlidxr7D4QUrBCtCpJDicwrSfJ8K9fMObDLDNUzKGgnFP5rWtLSrBCPWlRqO+hBA/S/a/qDqG61mYHi3xFoaaPnb+31B7uLb54btY4ojheBgAQEBAQEBGQMCmgbDfYSlPR8ICAhWhW1ImcL/ru6W7+yGWOf6ydc5DZBKB6LULw1y+M/MQIU7l8OSsVhBG2q7nZlhObM3ZXvEfujCjn/iqhNEAhIQEBAQEBAxlDIo+Zcd1b5afUmK8TkjoSECHrCdhUXrIhWjCo9Ww9Q4gYo7YdQuGs00BMo/YtZJiBVg8JnNfhfuLybWZm7bi4KOgklNant1fcAd6oCxfLAbYFAQAICAgICAjIGlbcLDAzbXIQI0aKoFXxb4b6GorhdI8Y7n9yj9PshuHMQ6D+1922X/uFNdE2yWIniAi3o380+PNBAZxdyqKM2QSAgAQEBAQEBGUKSfiLc21e5L7d+kxUihAF3n47pXWmOdYxxowLQfBT0SQR/nZPF6ibSt01UN8/LNdjvG/BDRhaPbKT3x7oCwf+K+zJqEwQCEhAQEBAQkCFgN87XsTmqXU6AQ0yegnQl/Dd1V2nzesZ3b9Q7rW92n+gXuJ2K3YdRFG/m12834rFGLOc0NS39eUb6X7fks4C/CvNuYdQmCAQkICAgICAgQyj00Lt1nk5uBAFZmU4TyE2ICaUa+f+qmI6uY3hPGRRmJx3TV1HQbUb6F4z0yxrR1rVHaWW4dUQdc2M5Ar3A0YrvB8H/R4N/U9QmCAQkICAgICAgQzA97jj2F6j3ocy/zw9kdmJO1HqA7jPC/dwCnYJA3zHgH25FqkiI9o1kTIL/zbyc2ZTVqsY2osvrDcZWGeEOZyNBI/0/edO58vVSbF91A/oiAl2Lkj6j8/4TGtwxGNujjfRHmXzxUA4LdKCJ3Tu1pH2MKL3NQvF/UNLu/F8F7sMI/n6+8WknEYhKHQrtE7UJAgEJCAgICAjIEDDvvonSXTTeh3JCOPIVwsEmcijpIZT+L1rSeSjsSRroQAu2ZGOrEOhkI+mhQEBCjCd4bCH4u5WwH1rX+C1HZcBppa1Q0M6WC8slnaAl/cQIuoVrmpLx2YAbOCdUsV65AAAgAElEQVSHmGQ/jOC+p3K0Z1+PeXX/TLcJ15nYaPvZZSi/3Mw0eQ4VqZhlc3kTvKbjugL1ch3701D4B3k+tbrPxxzgVyhwB0dtgkBAAgICAgICMgSW9NRAfxlfOhUtR/BPGKA7UdC/UNLFKk+nqHxx73nSbz389QegNEtLd7lpkk9BiM6JquLTUg3u71qSH5B2Sy1oeytKfTpPqHvcLgh+fxP7L2goXoSysomn/PyqcV9j2pT8zMQI3OkDsemvdw4OTDO9GopntdMNCBMwFLROYpg1BAISEBAQEBCQIWjhrkFRkSIdIXhjtIy9BhBomQb3fwrcuYM5e0j/+jgwkms1ytJWCPR4IB8hJhooaZnh4nEgdvu+DoX/jwF6xq4kBM0bW/yeCHQ3Ah48r2fejLTmIRd0o/S/b5d5wiRPg1sctQkCAQkICAgICMgQNPjbqyaEL6nncCvrOdwDGtwvFNiPc6oLm5+VoDTLR16Wo/J6I7z8VCNoJy7+bZeNVYhsRkJ+JS2txov8Z80UOKhuNpejcL+Y1+2H1AzVk+Y8ZBKPovhmBP9sq/t6LMGpbUb6E2fPni2iNkAgIAEBAQEBARlCUkwK9OzwAnIEekQLugIFfdUId5gC2lPlndEz9CvH86Blt2ZOkWmeS3OITo5WKKpxKldSiyLoNi3cZwdyGtes40gLulu/0gj3ZSPpuazLBFfqc+jk3nxv4siedQQCEhAQEBAQkCEw2eAbEJT+JpT0ew30fU6tKOTsm/Q0vVo9x3hR6iptroU/MRCQEG2swvWslcUrUPgjCrnCK6IGYtGiRS9zsRtESTdmfb4wAdFgv4hx70ZRGyAQkICAgICAgAwBwf2CZXJtDx2oZ9D20ZjlTkeHi4cGMaZzuX4k6xuqECGGB0paboAescJdYHJFFzUNi6dycbuR/sEsz5mEgEj7Fd29Hd+KZh6BgAQEBAQEBGQIC6OFXXOjuV3VWo5UH6IINN8I+kM7qfuECJGkIQp/E+bc+330ejl2D5JUMLU/9gMI/rJqnUV2U7Akncn1YFEbIBCQgICAgICASQIl/Wu1cLcGAhIi61HztUFBTyrpv6ZEcUG5pzy9VXMH2cBTuiVZvQVJyBHQWWaa6Y3aAIGAtA/6oj6huvwWitMR+RAr73c1kl5nwL9BSfVam7cLdDd5BWqbUlRKTYmuU8Fjn72IylEvlOeUu1vdng7EFLWxintnzYJWNyQggDEAA7MMmF7sRuoTZifM42ustK/XsrgHK24a4XfEHOr+rv5X8QVE1IkYzLs3c4F7ICAhshq8Ga0WVD+GQL/S0h2mZrh5rZ47Jk9v0+CuzmoxeqUGpPh9XN8PRG2AQECyB37w9XWZVxe6ab4S9DaU9AGTd59A8Kei8N9BST9G8L9ASb9FSZca6X+vpbsEJV1kgH5mgM624E/Xgo5Xgj6ghX/LYLcf6u+yr2qUUERWoSLVY0Whz8RmVy3orRroEAP+GCPpeAT6HII/xYA/DaF4spb+s0b64zS4jyL4g7Wwb002KML2ucjVJSrhot6ZFPVtOBANzJpI9FV/dxR1zaajP+c2YSEeJsIo3NuNoPch+I8Z4Y9DSSdx/2pwpxnpTjR5txilPwKl21dJ+1om0uyHVs/7+w28ZNPaWv9MtF/nRHO6J+HcWJ8//0T7bs0gQRty5lCUAcyLSjOUcPO0LO5mJb3LSH8UCjrBCPoKSncOSrpAA/2avfqMpMtQ+suSn4F+hZLO18KdpcGenCjcgj9AS7cHj1cF5ZdH7Q4F7j0uoye4ISZ3DFPUehqBblXCfY03L1FGYKXd0oI7PasEhCW6NdAP+3PORG2AQECyATPT5E3P0KtVXhnMu72VoBNQ0IUI7laUlBBb9pip/HdopRT8S6L69xxezucDhGUa6BYUxQu08J82YN7ghJrncm6TTjzh4w06xrhRAey2LHWP4A5GYb+KQJehcLeioCUkh1b4pC9XD1+NquLlMxrYB4x+b4X7mhHFQxPpfDC9vAnheTPWNvVGZdCxeTfG9iMo7BETCR2bo4wwh5VbvAFiQsfjFPNe65x9vY4TMne2zbs/GXD/NUBLkrG31v4dSp4tGug+zNsrFdBZSvjDlSjukJxKy503iMbRrwzTQ3vp2ByJwn5ogv3Kv3sEv/+B0YHrj/jZN1YxStzKSmv589cTbBhs4mK/7h4al4JqmujP9W+iupN+m1DfrRlW0Id83m/Ris+yKFr0MiazXvqtSdDOWhTfpyWTDfoDCq4bLVXH5LD1c21raGLYXFtDq2uBoMdRur9qoLOsKH7QgBnS0m+NEjdoy+cbT7os57GHmLRRu5F73OaLPx/sop02jTbNRRmDBfve7BKQZME6X3W7YtQGCASkpeC+maK61WZ806GlP8cAPVwzEk0zzXDV6xGPz39j7E6d122GeENZbUs7n/5OWRGtmNIb9YJeXxdUzn5Kg/s7b4Z5LNbbj7W+YzKHMV2FMR3NtyJVEjJ1NELUGyPXrt3Fz/zaa403autdYbrti5qPKUxWt4u2e6Xqdvtq4X6kJd03vH319KsGtxSB/jwY05EDldTVKWNbNxZN00DXMaGsp18r7XfvLM8qj5QqNgV7+Hukn3HbEejpOuMFPuDTgk6a26JbAwu2ZKHy+dMKA7RnEz/ClGT9jFSM6+MAz0sj3J8Q6PlGWBOsWgfc81q6S5WwH1DT1DbVsTq1bfJ4DbhPBAISInN1HuAfR3Df1bHdja9Te6PeaVEGgbFbyCfDrCLX6r5bMwIBCQRkrChIJJTuyyj9Pw3Qo0b6ZyrzsQnmpUBPofRstPtbDXRgX0QbRm0KJlHY4/c30v9Gs3kw8IklLa2tben0W/V1wPPG8Ukj6TYt/dl8GjpqipBwe3Nf80a58jrjDz7BRemXNTsNllOTsAtfw4qgRtBtTJCrprDLU97gvYDgn+BbJz5pxjzqUdctUdwOwf+bT7Lr6VczRgIy2FNSnPaYxt4t+T7Z5iGmU8pRa+qPmIAYqH3+NMI3lYCUejabMSjc27WgC1DSPTzvjfRLVpuvqUfldVHS8zxeEehmDf47TrhdxnMr2jKoWG2M4D5fmTSNfdCECDGakWB1IbwDwX3TSNrHgt22VScyYwVfXZuYzs2ij04tBWswZ5ooUTxxBALSXJTL5fUGhdlJgT9VS7rCSHpo9ZPYZh46JM+gFwz4WxD8D4wsvrvU0z7F6xjhRgj2vQi8FribePNR68dG9eXK7yqf3Ig8ySkeWrjjB6C0VtGJPkEb8t8j+EfqaVNy8ippabMISO+sXtDS7KOE+yYKusYAPVZLU2lE3w6fA1ghkL+3QMeqacQnzGtNhzJAexlJd9ZzG77qs9A+YyQgF3cKAXHgigZS/i7Bv6HR7e7Nu5mFnDtIA51tgG5gQswHf800ZF59vPLBrb+KDYiVsDukadmROlCWttKy+JVAQEI0K4ZfN/NEZRaPkk8K/d+0pPMGJR3JKQVRm0BP81tj7E/PKgFB8OdwwVrUBggEpHlgA1sj6d068ZjyL9RSclq9NtTagdJfh3n6uMpZu2nkMpd6ObxexnYXS0a44410N/FmrtkEbnjfoXCPaUFf4Q0dF/YOb6vqLm6G0p1vwD/dDgSkd1YZUCIpMB9GYOLBwhrzm06OqwIo92PsTrfdtqTU6vUZTJQt2GONpAebTEBSuwExXAsTCMiY4SMvObNAAR2rBZsS1w5Rs7CGzufv8xkEuhBjty/XSUVZBBcgGSh+P6s57CE6rqbjBZT0XJJywYpWku5F8H8zeXealcXdzMyF+ajNoGMqcB5yFglI5cHpv+tE6xXDxoJAQBoP3mCY2PTrnPs6Cnqikorjs3lQkS+t0ML/HGPavW92n4iyhSku72ay2hIK+iO3NQvzf+XJq3CX625XdsPIm5Z6axR0I5OHjBOQKVtHr5cDYPbS0l7UCkL30s/MbeB0F/tH0+N33D3aPa41loUGENw5CO6pevu18nMgIBkmIFPUDNVju+mtGPvfZWFsrit4bUdwjyMUP0dA22QuLYsVH1DQBYGAhGhkVArC/DNa+n8Z4X/CMpMY2wP0ehr5JIHrO6qTo+2KT22+uMCAuyWLMtZVAvKt7WHtqQNZQyAgjcWcOXO6Vd7trSUrKtXyk7MevNl1d6i8/TynukQZgZlZ3pSVkzhtrfV9tLagFbwu4XScr1TlJsTGJYVAS+rNSW80AaHZfRuy4qEW7sHW9+PqwSpwCO4OK/1ra+ORptMcBHddGsSu+t0FApJRAlKKSrP4mWqke6DVY3Ec8TzbBWhpXx9lCax/jdIlJwwZ6KQQnU1AnjXgL+GNIEvU8enhmikC7QiVT7wRWt7Ha4vKw4m+zoZxURsgEJDGwXbZV2nhP4vgb185J9tl7ahseO9lU81WSWsOx2CMrzGs218p1s9kX1ZVxlj2+Do93ZXLUbQegntjGu1tFAFh6VndVdqFPWSy27fVwl/hbjZgFnG79QZ+a77VT6NfKz8HApI9ArLoZYoL5YX7jcns2Bxxvr6I4P9phDssM/49OuffZKS/PBCQEI2M2kRF4f81r03SgcYCvrlR4D+c1RqqKgE5o9hd3CxqAwQCkipW3iYqoG0M2C8i+PuzOlZHjpWymk+jpDPZt6BV41ML+xYN9hK+Ycj+BqSirKTBno3CvRkFfSCrBIQ33Ekbwf8ujTY2Oir+LO5SnbNvUnm7IK1+rfwcCEiWCEhv1DuNbw/YLLAdxubIqZl0s4ndh8tR//So1cDuRDbsLxX5t9Z3UoiOvwVZosCfUujecU7UAeCNHUr/1axu6qrFk18aitXGURsgEJDUMYWV5BTQKQjuuXY/aKo8RHljYb/Nn6vZkvVci2LAXV0Tz2h1f4w1qkaGl+rYn53W95AmAamSj6SWpr0sAYosc/57BHdqGlLAgYBkj4DMjeZ2Dca0O0I6imOtjuQZIOhh7HL7V80LWwcF5j0a3D/akdGFaMtYzhKKA7F/bdQBcLK4h5X+kqxu7CoExJ2qQLXUsXisCAQkXdhpdlsT+9NYPajVYzGtqN6ELDEx/VBFiRN3w+vG2FxsoEvvooFubyfisUYsR6j4kWSJgCxiAz9p36WF+1dWBRHG0K8vpja2k58DAckCAWELANtlF2hB17j2HJvrDC3ckyiKew8XqWg6jKD38ZVMICAhmhU81jTQFwtNPsFsBEzefQIl54Nmc/7ww0lLexLr6EdtgEBA0sO8nNkUpT0prU1nliLZAAv/iIXi94elEjSMiBjhd0RRvJnzqFv92bMQaRGQOXPK3Xy6rAXd0q6pLWn3a+XnQEBaTUAWR9HUwbiktHB/r5gMd97YRKDbEfz+UauAwh6Bgm6f7BM/RPOiapZzt8nT+5o41NPenEzpixYINkyrpGP4TIbPz+dF5tioTRAISHr+CVq44xDcvVm9nasvKvnMbKhnhDt0mwamEmjhdkkKT8MzMlUCwoWwBUE7a0FX1V4zi0qCze7Xys+BgLSagHD/avC/QKBlnbo/rhptXsappVEroGL3YRR0V6d2cIhsRrJoAv3QRvZVTS0g7SltriLVE0VRvXrYL1PC7IhAf85yXmi1bYdHbYJAQOrHoqh3GoI/AMHd2qYpLeMTtgB/PebcGxtxA9Ivitsh0Pc6KYUtKwRkoJu8BjpvGEGe1OSj1q+VnwMBaSUBsXL+ljrvT+v0QwdbSWd93kj6iZrBQjUrmmuDMAjmo3xKFghIiGYG3xrwBonVGJo11tld3Uh/ohFmRxOZugwPWT4YpT0Bwd+V5RNmlgdW4A6K2gSBgNQPO932IdCt/Nknw7qe5GbH9uzB2Ko0+3Hu3LldWtAZGvzDk6Efm0lAeiM3U8f2S6FfX9qvlZ8DAWkpAQE6FiU9MRnGp6t89w/rvF88r6c0I2omOD0DpX9gMnR0iCzWgpirtpHbNFyJoZD3GqU/p+LEbk8wPebV9bze1pGXGujPmT8hEe5hHZt9ojZBICD1oU/iVsmJvfTPt2ZNr3h2NPt9Eeh5DfS/qfXj7AUC88W9OUc6ywcM7UpAjKDjOQ037Dte2q+VnwMBaRUBMUB7cWZD61Kriy1YQ3k++/vt+uke4owKFPQpzqMNC0GIlhAQSffZnP3g1ht42bAxLu1+ibY80HMVHWx3PuZRT/T1uKBb5WhPlD7z+fUI/t8Wiv8TtQkCAZk4+mb3Cd1DByIbfjZ43rLsNG98eOPCN+ha0nUo6AoLdJGR9GvM2ytR+uu5UNxBKfm3/D006jlTuVGlvxSk2yMt9TCU9A+Uvun53zW9fu6v4cF9XTNlbFcCwnUfFlTJAF1t883/HOvq29rYbPU+KBCQ1hIQlqVNvD6gsfPeJmsor4vzq3UY7gGUdC1KuiIx4ZT0WwPuSiPd9Qj0NI/P2hramDYlpqUvamnPZGuBqFngkwgD/vFWT7wQky+qY+4FI+hqLf3WaY9tnkha+qOMpKtR0rLq5F2mpbuBjaMm+rp8e4LC/cjIKqHJQF+uM8D/1cribun2bOMQCMjEoYRdgJIubsRDavimzYC7kx/SCP50BfRxA+49CmiRiel1VhQXuB63i5ZuDzaVM+AO0jn3aQT3TQR3JYJ7shFEhDezCP5pDSzNq+J6+nEoGtoYY/uxyms3fn6/dDNCTxig2wy4v/NGnecwgvubEf5GBLoXJS1nAsi/U/HvKrYNAeENHoL9DhtKNoOA1MZthSwn6otPsOgOgv8H92ulb+laFP4mLf39ledErW9b06+VnwMBaTYBSXx+wL4XhXuwuoYuT/u7peo4REn3GPC/NrL4ZQP+GAS3vwb7JiPpdTZfXGDyfldeQx2voYLeh4JO0ODO4XWAD0XSH5/VejrpH9HSvyNqFlAUT0CgJzO/kQrRkVEbd6wDv8uMpDi8bri8m5nUeYA7lQ241nhIL9dcdCXobXW8/kID9BQ7IWe+f4Eu0uDKUZsgEJCJoRwtXg+F+7xO5CIbs9lESXdq8JegsJ9UXXaH3mjEDdJqKGxQeIUCs0gL+xUU7m8G/MPD53863zN73vj7C91I7Fw80b40ObOnEe6WZq19fGOFQHcY6a9PiJ1wX9bguDZzfx3TPtV4txX0gcpGhH6IQFch0L9R0kNGUt0GeM0gIPydmNjsikANP/AcdpvxDEq6C8Fdr2J7sRLuDBX7j+mYDqz1LcZ+Py3cYVr6E7Wk87Rw1xjw/0Ggx9IwF5zImAgEpPkEpCI44a9l2fLUD0hkMl+Wcc0ogv+tke44K4o7jPIdr4Ztp9ktC7F5Nws3oKR/VfY2xdRVM7Wgr+tp6R8IrxWBgITIQCzX4C4zgnaqtzDcR/4Vlk8vBd2yrpNg/nN+4ExovkwrbaVj94W2mS/gf6BzhFGbIBCQiYFPy4z0f+ST8UaMIy3p2kLev788p/7NCU7DrYygM1C4h9JsY/X24CkmOYVumjORthn2TgF7SpNSK5dr6R5UQL8uCHdo3wy9vVJq/bG0c2CjgVkGzBtU3p6iwd1S9SdJnXymSUCsKLE4wrnc1gavn3xyvRwlPY55+qWS9oj+GAf4+TCWdqpIbWxytJeWdCZK+k+1X5ui0BUISGsIyACUZg0CHbL6d5BeoKTnE7W+2B/AB6T19pUSxQVauJ/yHExzbCa3hML/Rwl3aNQMaEnHowwpWCFaH4OxOyYa4wN4TZDo29DE/igEuo4JNZ82rOt9eJOGUPwcxuWNxvs+hZjepYHuaXVfjR6101V3OoridlGbIBCQiaFaeJ7qiVhVonGZEe44A6aXTePSaOuKaMWUUk9phpZ6N5TuD6lv9gU9jNNp/oT6MfYHoHD/anT+N4J7zgB9m28EWHmGPYW4PmIcTZ3CG0Uz0+QVqG20NEehdNc36zk+EQKihX8LSnquke3isYSSnuJbooG4uBtvLNXGu8fj7Vt2h2YCgLEfwLh4rAafWBU04+am8nMgIM0kIKaHdkJJf0j7+6TkVpYeVbE73XW5uXOjuV3pyIWX1/O5wiswdvujpAfTnkMK/A/mVpRCGyvLWzGroscCAQnRykgeHOAuVbF53XjGr5le7EdJH0KgnyV502M4weD8SQ307YKwfeN5L1wftzNAZ9sMGw++JLUtNsfwqW7UJggEZHwol8vroUBOHbg+LdWWWqFz5cHmjjJd9SnGrQu9vb3TVGx2VbE7P23ixGsCbz7H0x4XbZpT4L7bIM+P5SuJFtcdSLufBbvtwmghb0jqRp+gDTHvFmqwX6wVrWaJgOhpemuM3Zcb1a5akT6Cv1Ln6X2FaXbbOSltpF1up010XNxNxe4HCP7xRvo+BQLSIgIi3OFmhENLM4Hg7wWBbxPok7qrtHlD+izvZmrh34HC37j6+Km73dfoXHEPfh5HjYQW7tMo0nvYhwhRx2nrM1q4M5jdjzRmrbCzDfihitma/46R7g7efI11A1YhIO7nKHDn8cwVk0vI+j1Zdj5/CQHptu/g4rqoTRAIyPjANwkGih9F6R9Ka1wmKYpA92thT+rv6Z/e6M8w0KV3SVTqUnqAVjbH/qcKbGkczZjKZEgDXUtyfoMOWOgpzNOvdJ7e2rC+lHZLBXSKAbqj4bc44yAgCtz+KNxNjWhTNfXuOQXuEu5bt6nLNaJvVc5aDfRFlI3r20BAmk9ACuuzb5I9h0Ug0nvvYnLzwRlG/Tm3SWN7bsUULQwXqv8rDYJfOWClBzlNdpw3h+NHkOENkZXgIlINdI3uJj/ckZMngd/ASwXq5Wp9NYg5+wHesKB0yanieMdudbH9kxX2LWOcJlOLgm8//N8S07MM9NXon7HaJ8LvGLURAgEZH3zeb2Hz/s9G+iVp9RcCLdOxO6c36q07V3ks4LoHE/td2RcirfGP4O4xsXvPWNvAqRGDkr7Ctz4NOqVfjtL91E1vvCAEexRVnut0f2ZuQASdkfrmctV4fVGD++2A1L7RfetybhPF3mnCPd6ofq38HAhIswiIFvRBDfTvilhNSmNS0lKuIeLU1eb0Hu/l7adQ+BTGJaca8mdwf+uPGnwAZcAtNpIeCgQkRDZuQfxjJl/8HrsQr0zTmOHmofRHGPC/YtPMatHVsjofnv8y+bE5hM/rmTfDSPcDC76tnFFZclKJiRmFtQqBgIwP2F2YbyA908HET0PQharLNJW4qhmqh59FKCkVb50k91rQ58aaw1yOytO1bFzth5Xugmaq0c2L5s3Q3frIRin1jYOATFXrq3kIdFEjUpcqgiL256pbFZvUtQkJMYlKmX+2EWpJlZ8DAWkWAUnSLlP6Hm1lXrzIt33zxPymPnt199ArWQkxjTGZPAekf0B363JaaaJrBYL9GF+3t9PGKkTHxwMI9vOKvQMkXZZIzkl/twH/DP99vWZclSt7f5eR/qjR5oeLeme6HB5cuSVseb+MTzYV/D+ttFtGbYRAQMYOHxVeYWL34VVzov6+qog3uMNb8Xl4Y5eYGaZBQHhTBnSumVbqHYvruYr9a/mBm+btRzU16EUUdGNV4a+pY4+9lTS40xohJTtWAsLzWUv7QRR0c9o3S9W03at195hvslPd7KmYvsceammPmcrPgYA0moAsjhZPtdPslka6y9Mix47Tl/L+YZT2CD5UaW4P8py3u7HPGa/jtv490hPYbcddSzfOBifKQXcGAhIiC1FRGkk2Qvdq6Z+tGHSl7aKc3LQ8biQdP+r8yLk9EOgflWvJYjvdJHE9zQXF7uJmURshEJCxA7uRtKAL0pBhXOlJIem3vBFo1WeqmBbSPfWa1CWFlJL+yOZeo77njKFXauFP5BqNNDeTlboP/wAr1bCqUvXtGqsqsxpWTFE9bhAFXVOV62wBAYlepqX7Efdt2utnxT/Fv1dFuzR9o8corOc1gr8sdeW55OdAQBpNQBZFi6ahdPsaoJvTu50r8rj8q+2xr2ruXK9AxWpjBPsRA/6FugmI9M/qHJ2texpTQJ9AS/oggru1XTZXISZHNFbysHZD4E4daW7YnLII7pxGeSs0su/Y7GsQ7MnbCzs7aiMEAjJ28OYaBd2ZIgFhk85D0tCpn/Bn6iZvBF1Y74agWkh/uwL78VHfU9D2OvaXG0ivjmbVLST9qh5TxHqR3EDk3GH/396ZwMtRVPu/g5B7p+vUTEKAEEQCeCHxQu7Wdarq1MzNgBCJiihixF3Bff+LPlyeGp+4PFAUBXdEBB6KooCg4ob7iuCCIKgge9iUxbCT5P85PTPJJWS5S/dMz73n+/mcDyHL7e7q6qr6VZ3FAl2X+enOOASIjWwZdUjTA2d1gtx4R/SgUf7CZMMGS9sXe+nzxeFoq+n6rNpWBEj7BAhvClhNn7acwCOL4G2dio9/GUWfjToIzU4WW0U3Z/F9m5j+YuPqYG432yw9n0t2CjGx4hoX3KFPb+azmFWLajva2PMRewHudTK58MOtw2X/xsFKPfcsRlkiAmT8OBYLGS6YLdCDSe+jTj9mtdmigfnzFQJ9fKoZaZqngA+iCqdtrR05WxaqkFa9zvYbpD+OVMLLos4yy26/vIxA32+3AKlH0bZmOxpGnW3mwNb3nIB95rL5yzqa4Y/TC1tFX8hqk0oESPsECCe2sSrdeJjSaYF99Dd/idF0xBhB3PYxlDeQnAoXsBfEVJ8LITyCMLmaSuPCQvXlDV9xESBiM8d44YaaTt7UN1GPFvYaoC+h6s7scGkAGdCNAzEenERJHHURIkDGR/+O/YCaPpTN4mN94OTlWELD1c55EuuE9UcrZhuovtPA1F2GGkXAwo+20pTboPIvaMSUZfetpycwZTqVi+BFBcCU/cosXa3HJUAqg3NGYvcyC+GOTE8IIDxkdfgBn65EBSCJ7UtQ+1sze7701yJA8hYgyQ7srkQ3ZtU3KY07C99FwKU8lnGK9HaPn4tYVJXqu/LJLwLdMLVna3ihJBW7IreXzh2di45040JLTGyyRo3Ch6dv/D0s1jgvUe5DqEPXJmZId6IejTUAACAASURBVGKUv3a4Z7iPA+2iLkIEyPjg9I5cSTvDneU1FujfqDm9NZ2LEC7ohFkdvok6/JkFUUYLgt8uqew2d0s1hQz4d2ZeCBHoOlT+jVFBMMofiEDfzrJY5dYECMa4c6LcBzmYNdMsbUBXJ7E/ulNuVxuTxtlof2arXabaro1fiwDJU4AkUbIdn/ZaoDuzdZ+jm9MSAZ0aPyGczyLIAP3BAq3Ooj8m4F6b20tH5Z+L4H/ZrYstMbHJ7o5yVfOx38KSkt11OPZHo/K3dVPQ+cbG920U/b7bTj8YESATWFAqn9mCstVveDETykvXUYeMr53VMzUq+tIfB+am732TBbW4inwC/qTMBYjy57Qz7e7W8JHf3gIdz+3bLgHietzuBtwZCDRlV5AN73QpX/fHA9vRcFE2VzjbEVe2b7XLVNu18WsRIHkKEK5vkVYQB7o7Q9fEta0xtFPjZ8NGm2NoI65vqv3RQFiZ20sfLvlnGPA/zKn4UsfMKOJgoH8h0ENFuB+xYhkXFETw6/3DE6jvgIrehxDu7FbhMWb3dTVC+EpRdggnggiQ8ZEo+3yj/K+m27idpTUEiL9yoIwHcaHBTbZjb7WWxHR2lt98OvmrcAzG9Z2jAuE0vTnL3d6tCZAEOBjW/xQ1ZRbc31xsF25swxiHsvC5FwHSHgHSz6dz4N7Oc2U3z/e2LesJf1JuLz1RYX9UdN50msiaR2Gft4o+YxRd0+n7ESueNVNkfpG/AYxwHqpwMkK4q9sHo+ZzXYNA7y7aJD0eRICMDyz7N/Liutv7a67fAgsBoKuHtXvR5k4Dja4+w+rwC5d1/EcjELVQJGX/AqNpVdtOQJQbsMr/w6a1ZbJpW95QRPAfiQrGQMXuYYD+xG0y1fSnjV+LAMn1BCQ9nfOfyKOYpJ1G1jgBoTNye+lJyVveLc3yKL/DtpZPPmwcnjKi6MkG6LsFuCexohkEdpM4ZWi27TdA304rsHf6njKwlt87VvBQESDTV4AY8O9FoJtl8tzye0cdrh2p0Ku42OAm21GFw1HTnzO8LqcyfjgZRwXmdoNx7eDUN7xNAsTHXIPE357xbuz1qNxbo4LB9ReM9udMdUddBEh7BAjq2t6ow5lW0wMyhoYtf3O6+vXcXrrZjvZFFU6ZBgIk9b9DSPODf4DTjw6Xwi5G0bGthizAPYoVxBBoDYK/DGP6Bge8Fql/TOVeUh/pcrig2yqgtxABMj6M8h/u1ixt7TKe0wzQDSOK3twfbXoxZ+M0Ccvfs7omVyA2EFYZVTswKhhcjR2helG7BIgpEaKie7Nq22aq6D+4uHinS0MwtCMCndgYtya/lhIB0h4BYqHWj+XwLauzq/1jp6E119Tfyu2lm57angjhpG4XIM0BcQ0q+i0fh/KzLYzqvcMqvKj1552+R7FiCRD+b7YV1jOxtVxka7L/nvPRI4RTihKgOVFEgIwPE9PxeVSXnk7WyJjkbxqJ7TsXRUFvqh1t7F/OqTgzFSCarsg1d/4ksRBGORNW22JASs6hys79qlmd+ecWavmlBZ0knALVlvz7uaidCJDiCxAuPsptJwIkbP2bA//93F66U/vOR03HZleKvjPWLAJzOWr/Uk6x1nq+fUqERvnVnb4/MbFx2gNpPwa6EzWtnYyPtFH+mKhLEQEyPgzvtor7wLjeOyr6H7v9pmtGYMm/ppH1LmRWTyUB/wcubhgVjASqtdTdtF0nIJpCo5BrprVHLkLw7F5aKJZUanOT2P03F4CdSjytCJA2nYDEdhC1/5nV2RQhtNPUGhn9wk9ye+nJggUxB6x2swDhRnIQ7rXaf5oXMGOfb0DX9k5i/0sEmazFim08CSCEfxlNH0gUvc9q+sNEvss0YEz7vybgXxF1KSJAxgdnJuGTMhnTxvHetX3/5gSIA3oVL7yyumZavwSql/FpQ1QwUNUOMEA/bpcAsdp6FiBZFj/krFqu5A6LCkajEFx4r9V0W3eegKQFHldhHGaEAME4DBlFvxABErZi/M1RfgIkfRnKvSmti9Dxh53CRAN0VhL7kcd06pJ/vFH0mSyLIYmJ5XiKdxuCf4Xrqe/ulHszKrpmvDtqDQHjL/DKF87/fLyIABkfCPRxq7OrrzCNv6ebE4Xv26wAiekIC/7aDK/7CGfeSpTdPyoYqOlgBH9p21ywyt7aDNPgNwQI/dYr/8KoYKRp3MvV47jqe7uC0IfLwWQqQHT1Vqvo050SIEnF7s9zWHZjGq2zYDcpQIaVG0gg/FBcsMJW+wVqf1GuL95pOmIqqr2TjdMcCC+3QM/Z3M4Elt1r+WhUOppYka0pNFYlJfusdECOkwU29u/ixTP/+db6L8d/ePDH13sGd4+6FBEg48Pq8L+cuU3GtC2/d9R0UwLu3Zt1wVLhhRboygyvuxbB34OxXx4VDJ4jUdE/21YJvRyMAX9PxkHoVzmg10UFwyk330D1S1Pd6JyIABmIaRg1fS8rAcKn71bRqZ0SIFbT07MUIKj9I177Z2zqWqiq+yRcNVwEyLqt90f6Qa4vvlENPdzXnY0T7rXl6htI0U6bera+vr6eBJKa1eG66VTrRGy6Bs2GG2zJ+v6of3YrRsuA/eh4dtZcOXVFfGXUxYgAGR+O4xog3CKT59a/J1ThqLCZIHQD4TCEcEnmwkf5F0QFw8R0BCr6T9tiQGIaThrubWsyrElwt1H+/VHBSHqT3VDRzxDCA+0SIJxCHoG+k50AoXuMCl/3kS9F7Wcb1xsOb57EZPIdNlIih6dt6mIEtNjq8DVJwxvG0S/CBbm+eYzp4ETR9VMt297+hqH7HPgL+ePf0vMtiZbMRUVXigARK7I1M1hda6NGFrcW9ag+ByGcyZPvFgbLNQjupkS5ZVEXIwJkfCC4dyD4a2Xy3NL31CjKyQvvzRUiHCnTQYkOP8i6EroDek8CyQ5RgbBx9Z1ZuVqPS4BwpiFOdT7F4nyP/pbTMfK0qGAMquo+jVpSbauEHpmK2dMCfStDAXK/UfTtzX0recLXZHfIDL/DtajpdlsOT9nU9XyP77MqnWfulzE0bLFfJBC+kuvLR0UHJBAu7S4Bwjnew19cXEs2DjzfBNsi0Pc59ap0NrGiWjq5Kvp7fRM1CzgmxGh/Jmr/mMm8eUz6EGr/jaHYDkZdjAiQ8YGxf4VR9McsN1W4vXnxnLrypf/tbguVOrvsXM9ZkzbnVjJY9hbLdHqW80LTVehrSa+vRgVhaLbbCxWdzO+2bZXQ9dK9LNB3UWe3yOPFNurwI6/S6xai0OpANKCw7J/L8T+ujQJksOQfj5q+wbWfsmhb1GGdUeE3ftf2n4CwuzHG9I4Mv8M1FsL1vLbd1PVGe0ef4DR9yEJ2cXSOx089fcZPtrRvKf+lXF8+9iIZ5S9sFfPLaiDOyxq7IP4fRtObx/mIs1DRZ62iO7ox1kVs+ptja1Rn/3U9qm+7ue8Ugb7a+PvVjQXI/Yl2RyXx6IKoixEBMj6MDocYoIuyECCt3U+E8GcL4UILdJ5l/+jutx9YRZ9xyg2s3Mw3NaTdXgn4j2Q973FxQyyQO2QCluM/fuYyqvc1riD03upuRtPJCCGzejVNAfVXC/7VRREgqHFvW/bHZ7F+mogAQY3z2I0oKwHCfcNAuMapJ8+P2gzHsxhNn88wAH2NVeEqp6r7bep6SZTs4MrudRbonizWhC5NV0u3WQi/mS7jJ7teWaDvILh8xzHeTeDjKFaNRRcgTT/Q+wz44/2u/duP8xFnJbE/2gL9XQSIWBGtuWv6HwPurM0JEGa4d3SpAf9DBHp4o397V1p7oL75f9sNiAAZHyO66lHR2dkJkHA3QvWrnLYSdSAPvt7tllb+LgUT5gW9bjOL1cFKfY5R9Obs5710nvpktPXT+baAio6zilPEVtsmQPZVbn4C9B4LlFmyhFasAm/E8MlDVAA4eBqBOI5obTtdsPqjFbMN0BlZCZC0GDWEO7iC/ZbmoDwY0XSw0f5nWQoQhPBbrkWzqetx33Elc4iFcFd2AiT8ExV9kMqEnR77sjCn3H5srcLeueEqbner7DGcw7zoAoQtAX/acAnNBB5xlgW7wgFd3O0V38Wmp6UpdHW40Wj/v1tzKfTb+RET059avtV8eoJAfxuCoR2jLkcEyPgY7HG7c3rxzPy/G24yPxqdO/qEaIbBp0kIlOn3nLoKcZ2BOPVB7+RO/Ta2x+6Byv8ya3e9rQkQFn6c4IZrY2R57TTIH+gms63BJIrWFx3uBByw7Ur0vqyebyIChLGq+pms4nqa5QzuQu1etqSyZG7URhD8axDoliz7JupwDtf72NT1VkYrt8EYh1hwZdY3ITxowL+rne02LVgcLZ6XlOyriyxAmve11pXD5bYy+uQJPuIsLKPhdGLdXHBRbJoHzKpwhSuF125tkbw8Wt4zoq1HTX9OJx8IdxrwX9pcqtFuQgTI+LEQ3sXuqFm0UbMQ2X+SkrfRDMOVas4ofy2y20bGGRoN0FmdfDb250dFH+L+79osQJgnzR7ay+pwY1axJ2PadjVC+LLd3u4adRDT657HbrOuQwLEKfqgBf9Iln02qYSThufQwva0YBT19/fPRrAnZCziHkxidxLHPm3uummJBkV/zyrrFvGmQ5m+jLscMK9dbTct4JSfSRyeVnQBwrU8bJmev2z+sgkfvfaX+7dH7b8eMjquFBPLfsc0/MbFadrAre6Y8hF5I/CRs8z4WzEOr+hU/vYsEQEyfpwOL+PYjSzaaH1bg19p5poZdQqSzKbFpsQ+z9lmxGkUBg3XDJfcIUmUdGSnnnd5Ufm/Nu6p2nYB0h/1g9X+UsspwrNdW6xFRf8ahnBYp9q2P/Lbm5jOwFQAZFjtfQICBBW91QKLy6xqZ9AjCPQPUyZsYw2VZQj+oqw2h5t98wET+3dxoP6WMm+hCt+yEDIJRPeNE6Q/GE1HtKvtpg2mkha1KWJRlrXNglK3I4SPDExCfKx/Ru0/LycgYkU09uNFoO9xbvfxumwkSbKd0fZtvGDnlJec7S3qckSAjB8Tu6ci0B+zaKNWW6PylzvtDolmEBjXd8a4+g4H4e7s3ZTCgyam73NV8LY/12zcm930bA7ZH8crQNKNEvCnYYZxIGPvwUC4YHOZjvKEN0Exprcj0A1Z95kJCZDYv5QXvVlncTPaHsk11NrRljb2n0gTBJWzG+/ZpZSLjCZzk8rmrssbdkaFY9j1OTMBB/RAoui8zdUdEjbDYGVwd9T+NvYnz3KQyOSDhDSg6CsD0aaLDU6oenABnklMbGNLAwmBzmoGVo7bZ5xr4HCWHz7GLkpWmKkgAmT8cMrlRIVTssxemE7eMX2sFtUKEU8USmEXnF3bmytN5+kBQL2jwWq6OeNaUWs3zGH+E83UsW0BI5znYvf2vMar8QoQ/p6Tkn+10fSXPOIvm0UfT6PZyeJ2te0yDmDW7mkGwq15iKoJuWCV3TKuBZK5AAH62iDknkb6cRyjwZsoWbmSru8TnN2q5NyWxns+ObOQPJNdmbP67n1aHsKvwpI/tBP1VDZmed/yHtM7+gSu/N4qblxIbMnuikC/LVpp+oZvPJ2X9LhNplObCAmEo/kkpUjPJyY2Rmh/cpJdu+uFRwsRIOMnzeCk6cgssxc2++FNXEiv08/H9XCspi+gCr/DOPx37rUcwP+u0Q45zQ9Q/aRpQ5A/f0McH4Q63JLXXDdeAZLGX2rcO6uK3Zu5j/s5K1YSH7Qg77FwXbRuFrvJGqC/sbtSLvPABARI6AlPdCp8JI8iy5zRaUUU5ZbFDWPcGcvhAo7nyTwNtqJ/jGPTYtZgNDgHlf9exgU6H7FAf3GqNhB1GFOpHYhA5xmg37vtXMfvZ7MMKNrJQTiNj6GLskBvKHF/VVLGF2TxjAj+FVb7vxbl+cTENqSW9DeZ2L4tmuHkKEBu5oVQ1N08ZnGVVPwIZxnK3L8fwqWJss/f0rXzdh9C8KdbHW63wIt3uooX1XndD++GoqJjraab8tipb6aPXW2UP3cE7GiUE0NRbUej6NOo6aY857kJCJAU1P6kPL0rGql5/Y9M76bTrmZBI6sXvdWo8LcsExZs3K4TESBp28bhFVmeIKx/v4quSEr+DXm0JYsDjOk9qLkOR9ZjF92Dms4erAzOGc+9GHAfS09MMrwP1PSwAXeGmZtuenWEJPYvsTr8tJmy/0ET+4scVGtRERmM6nM4aIdToXU6Ve2GgMhwLxcbTBYkO2TxjFjxh6KmDHNNi4ll5rP6iwToOdEMJzcBAnSHKblnc1BuWvcotoPdYj72IzXYtEvUYGnw8U7TuZy9JttTkPAggv8lQvXQpntfW+iL+npGZtPBnD0KgdICdq3dXcMipORfPSYOMEsR8rhGNiz6VV5xgk3XkAcM+Att7F8+XAq7ZHXzaV0DHZ5mFX2BU4s20nMXSYBwwoRwWZ4nMlbTWo63wVJ4javUd8+qbdOUrXNoqQV/PBeY5OQC+T7HRAWIX84L6JbLX7au73QJxuFly6Ps4kGScniiUf79CHTNo585I48ZHa5PwL19vHVijKLnoaLfZLnudQ0hdDdq+izPOVEbSU+WNL0VgX6POjzM407zftawMLPK7h8VDc5nbcAdhkD/LIIA4cnHgD8z2SG7ys4GfN1o+qYIELEiWcNvlM7gAlDRDCcPAdLc0b/PxnQWTwhW02e6yRyEL9NmAm15V5YXK6jpxgx3QdOYEg4KRR1+bDjT0BaCObNa5JlKbc/h2L7YxHTRRou8DTEuiq505XD4wPx8itAZRZ+3GdcEGduu/K033YovR0X/M6iq+/mSfzwLr8ncL6cSTVhQg3+11eFCPmVox/w2cQHCJ1rhpDxchTYYi9XRdVYFzvr14aRS3Y+rsfdFyyfVtkl0YMVCrR/L1RdwxXEL9GDWJw2bateJChAT07DV/of8PrJ/x2GdUeFyG9sXc704Ln4YTZK+yJY5WUoC/iMIPF7lEBPUECCXJuCr482ONty7/0Lum1wJPtN70enG152o6WR2/807WxvPBZxGPQH339iMT2qVr9jwPv0jqPzXC+eOlU78c6v7WB2u6HSmKD7e5LRsS7ZfsmuWu1w2rg6iDifnOwiKiU3MmoL/GFJTS7IwHchDgLSsNSB3m1XLdV5cbdY9L/VjBvq1z2Hh2Qzy/Stqd1Qd6jtkPYny+65H/eAqLkEIXzTg79nS+Nyot+Avw3J4YZQDTocXccHavBfxjXfLJyL+H0aF/x3sSfbjQqILFy7s5To/3M6cQYrbp2X8exxIytl7Dpx7YCWZnSxGCK804H/VyHTVvnltogIkbdsyPc/q8FA77q3x/vwq1NVjRxQ9mTOdcU2UhVG9d2ttyws5X/Z9JqYXJ5xlC7JL8jCee5/4CQjubLX9L9Thvjzus3kacpfVLM7DKLcjt1NzLNhcTB2v27bhv5O6N+5Y33lYhcMTRb9CCA/l1VfTorzanxutm9i6cUhXX2Ig3J3LdwL0AAL9gKuyc3asddme3M7izYvabrW5PHYZ5X/qoLa1++GYqe88sXefoqVbX95jFF3cyQU6BwNx4wyXg8k6YHRJxexpgI4XASJWJOP+mMT25Vn29W4lTwHSrdasXfSWLbWbLYeVFsK1uQSjalrDwsBo/1PT6w7n0/Is3jXvTLP7iFHuywjhFg4mHp8bSRozdSmCe2WUMQdEOI8L92UVlDqetuXTOe7vWPZXcrZHE4f/Skp2xTDQUt7RdNuNJHZb621MT8fYvRJjfwIq+plV4Y6mv3umO995CZA045Gis/mZ2/Rtr2U3buSFJdBViaKzhyEc7XrN4ZzUZmhbQq6mbkvWc0prE9sjE0XHYUw/4QB+9sJg3/l2t+tEBQjj1dIlqHIdM/m7fJDTDlvlL+T4DRe7pw5Hw1yw8DGbEgPRMsUnmhboOQjh47xB0uyrj+TXdmndnX8a8O+MJkh6igSeMwrmdYL4kIm5Xpc/KUtPhyQaXcBV5Nl1FFV62rLV9m0+32qr6FscaxcVCaPCN9lXrBOTf1N8XJRAeGYez8Y7zBbCyk67mImJtQzZbxnoliR2XIBwxiMCZHICxOiwCJU/N6+Fc9PH/iHO7mIVZ1Xx78IKHbBkApWoeYd5X6DFHFdiy+G9RodzOAVn412P36++ufhda4EuTmL/0jGn5JnsLPK3aFRI66u0y50pFY5lDqYOd/MiiuMl+PkQ6De8eLNAv01rvgBdxe4VFsJDLd/uTnwnkxEg9YX13pG4dnDWAb/jadt0ZxzoP9y23IdT//hG2/6G25ZraSDQlQZolQVqtm1+sR5b/s4mIUDKfnsD4bt5nYK07q21g26Brk/bTNFPDNB3ORUwi2fORoaKzuWaVhwAbXW4LBVzmh5p9ddca2kpf25SSiZcc4dPHVngW8g+I5cd23aK69lxv/On2JiOdHEtSRYcPO50vUui2lzsDWRiOoKzZhqgi5AzskGjiPiE7h3oXk5hXSjXb/ad5Ewg7fzwWtcyincp/AuSBfnkT+YBkCdyESBiRTGexBH8BSMVl+TR57sNESCTEyAMKvcm9q3OcwHCY2czZukGBPo2ajrR8o69rr7UVug5RvtnjJTpICzXlqOmgx24ZxsdXmRV9fWo6H0JhC+iDj9p1dzw5dFJLUpavs2GRQiEZ7JbSFZ9cN/IzU8UvZUXTZ1YgLbiRNgVeqxxW/Hvd2JhnIUAYRKo79DY5Az3ZVV4Lsu2zXuRnJcA4aKBToUXcRXzvD08NrRjo+14fGJLf0/X0o1kFgONdm2fSE5PAsG/sz7JgrxJPLrAsoDKsW86XV1H6fqT0qrpqWhT9EFbptfbMj3fgHs215jBMh1ktHuq0e4QC7SCq6ujCkehqh6XniKCv5QFBLf1ZPts07WOEz2dvG8BUganYNm/0GrffjcsoFWJ8m9khZfn81nwL+cPp63PJia2CWsOGnys/W47gZ3k6YwIkMkLkPQUBMIJ7eq76WKDFxl6lAXJA6j9Taj9XxMIv0ugyhPkXyz4a3nHu7EoaS72MlrktRY2RodfsPDhQPas+qHpqbG77iWdECHdYJMVIHwKhjEdhBD+1G4B0g02WQHCp39cNydR/rxOP0OnzED4oVOTrxfHsSoeatW0hkcb+qZriWHd2IRBDlhvjJd8Kvx7k54w+Sst+JsR/JrWGJrlJgT/HKPpHgP0ZU6GEXWa4Tm1AdR0brsC0VO/Pc1Hyv6EvDKbjAWVf67EgIgVwRo7EOFe7KGDVhS5SmkbEQEyeQHCJMrtx5kMbU51CopojUmU8937Q7PqhxznkpTsMzlVqJyYZydAWiD4EwxQmi64088yTQRISgL+NQjZVfbuGgM+AQkvm0ybPbZvhhN4TTpT+qZrZInkOKn/44QGUSdZsWLF41CFT7UjCK/lT5iAP23frVetzAQL9ll5FkQSExuvNdPiXWd7RvdoR9/vBkSATE2A2MiWhzW7YvjVM2UR0nLHQk0XGR0OyaovJlESG3CfRE23zZS2bJcAsT12D4Rwmoi7x7brVAQIRovnYUwfb2dGtE63FwI9yLV1aB4tjjKgP0p2S2I6fSbNP66xGXqXiaufGe6p93Wi+Ox6OIsAcsBh/g/MR/f/184gGPZLNuAfzrJoj5jYJO1eVNXz+stP2b5d/b/oiACZmgBh+mAorYbNqTNnirtpI/8/x1PRRVj2y7PYCWW4bgGW6fQsK81PB5uqAGHSrF6KfiLi7tHtOhUBwqCiAzD23+90PEs72qq5e/9PzmK2vG9y9V42xUjqJkg/aFc2PFuUtlTh3zYOJ3S0TggqjgOhv+T5wOngpeg7XBywrc/GwZFpTmsRIGKdszSQV4cbrKq9pT+jxdJ0QATI1AXI+oWzDl/n9I8zpR05FoXjTRLA13BWoKz6JAsaFjadfr7pJkA4ZsH1chVqf23rZ3b6uaaDAElP7nrd4VaH26Zzm6Y1ijTdhkAfXxety3S3fkW0YjYHf1tF/5hJfTMNvQD/Qxebp0adAnUgq/1X8mp01Glhlt/b7exgu5/NVGoHoqabRYCIdfpDRx0uwUoY4qJY7f4OiooIkGwECJOo6jIL4fyZ0I7NNMGrOTMX9dLCjIt9RabHH2hU4IVybnUM2mDspvZIUQQIU6vU5hpFb7aaVs2Efjq+fjw1AcKQWraTjavHWx1un87tikCnh3lhlygH6pX6HBPTkWlq5mnchmOMswrewdkU7fZ95ahTLImWzDWxfVvWfoQttytU4XdOuYG8S9NvLkjTAP3d6jBjgjTFimdp9h7lz2l3/y86IkCyEyCMUbUD2ZVgerdlmk5yLYI/zZeezJlcHpd1v+yP+mEwTp5udH5pjvM0B2kNgttQhSuKJEBaJyGmTMdyvYiZ4vKypXbNQoAwtag210D1DAPVttVdaZelbntAp7pKLdf09X3R8rLR/v+hpuunc99sZeEaUvT8wag+J+o0nIMYIdyb5UNSWqnS/zhRblmWKRMnAgItNZqumElZYsQKKD4gXJNA9R2d+AaKjAiQbAUIpz1NlN3fKH9+y01pmpz+ps+QBjED3ZmAO24IbH+UI4uiRXpY0fMQ6E/dFLfQWKyFS00cPmqBjs/CpSRLAcIMzwu7oKb3WU3XdWfcUrVwAoQxs8Miq8KprcKVnW+nKdnaVlwLKneOBTsatQHUOC9R7k0G6C/tyg7bLhtTpPNPHHqxpJJvGYxxMzzHDSCEX7IPcVYfFir6hVHu8E4+FwsQ1OEyESBinTIexAzQt5dAaMsA2k2IAMlUgKyvEM6bPhwTwjES02Ah0lhU88SpwuVG+fcPl4dbmVtyJYletR3G4ZVWhd/xorPIfXRM5eo7naq+FVV1H6vti1t/ViQBwtiK3cMBvccqurpTFd4n0w7pr4EeKKIAYUJvID4tQKC7u6VdNxvzAWndrG8bZQ7si/oyCzrfGvsqNz8B91oufNrNbbhxe6bV0MF/z8b0Yt6sioqC3b6+oNIE1AAAG4hJREFU64gOx2RUmp6Px6/kirWdfq4RsKOGC72kAqT7O5FY9xnv2hrwH10QJXGnv4eiIQIk2xOQsZgKDaNK2/bOxglCt7Zv6sr7AHLBQ1V9QwdceWdxgCpfn+v4dL49Nm1N8fHvRNPn9+kdfUKjD3iOgVxbRAHCDEQDO6FybzVAf7MFLwLZcCmv3meBrrJcmTqrn5mxAGGSecliA+7URn2L7gyqNkD3GRUuGNFVP+bR2pYqdmFU703mjD6TK5hboNWPfl/dY617Rh1ut+C+ZpXdPyoaXIgJK3SAhXDHVHfMEOgGV64uqy+s93b6uRLwVaPp91LhVqxTZhTdYcG/vNPfQhERAZKfAGm5Exig1xlNN3RrHBzXjjKKTjUl07b07ZvCzXZPQkXfZhFStL66obIynT5YGVzv082nIOn4k8XPz0GAMH3R8p7hCh2AQL/udDtuvY2r5w2r8EYT+/eyqM9C2OUhQFpB1RbCynQ9VrD+ujUzEO4zQJ/0Zd+Wk84tzU++x/dZcGdxmvNua8eWIdB1Scm/ZUDRTlFRwV1wHmr606M/jAmmGlV0yVDsnjowf1nuVc7HA/YGQkW/EQEi1rFJK/Zn+pK3nf4WiogIkHwFCLNoXtDDvcOEyp9mFa1ml8AitzXfW8P3mhd8/num4g5L4tEFnUhiMhaOY6z2HrhbEteORuWvLEo7Br2UdzevNeWwMomTBWPv2VRqe6Kin3Mmyqnca54ChOnrW97j5/olCP4jBvytfGpchLYd8+zsDvRlE9Ow0WHRiPIfKLoAYTg9NdfMMIq+ydcqsjtmK97DqOrFVtWe75Sb36nY4bGsjKJt+F5sXD3SxvRzn7pkFbcdHzWGKrrdKv8pDt7vzzBVeS7wAI/gT0BNt0ysYmnjhSDQjxOg53R6ohiL0RQQ/O9EgIh1wlL/0ZiOWBYNFEKQFw0RIPkLkBYYhyFXotdZRedZ8HfxBFWk4mU8h3DmGYQ0ve5FCO7dHMO3sAAn6WNJxRC7ZLGgA7qDg6jbvbBrLSbTgFJNFyVl/2p2o974XodLHOztP4cQ0niAogqQsXEhVtORqOhsdsHhdUinFs3cHxtxCP66RNOHfGV0JL3Hkt01Uf7DWQoQDggeyGmOYF9/Pj3k78np6s/4etxni/Ddb+jHXOPD/zUBOg5jv3wgKsYG9ljqUX2OU9VlRvljEOgSvv+ibEK02pLHTxZIfOrFp6EI/hUsmKOuWQz04lIL9JvxRv83B8A1qOnnI+APjQpGAq6WaH+pCBCxdhv3OVR0Ne+adfo7KPKYY8B/iYuFyvfZsFCu8472UXm1edLrqxb88TxmW6DrEeiRlhBp5ztoXY8nzObv3YyKfovgT0pieno9Wlgo4bExQ7Ntv9HpQvQnVtNt/Ax5C7rWgi0dW4CLptFZibZP35xI4yw3nFZ0qq7VTQGyJm8B0sKWqh4hnMCJcYwOt7Y2OfPun60+2awSfZtV/qdG+/9KoL7Dhvfu9jIZC5AE7Ip6lK/Q5iBuC/Qcmy5M6Y9psoI2teum+nDTbfB+jhc2OpyTgH8NB39HBWdg/jKFcfWlCP5M1P4yBPpXJ9pxbH9tBuzfh0BXW2A3Uf+uQVXdJ+pGLNAZ429I4iwFf04gqUYFpBmE/icJQhdrpzUH13tMyR/Pu5Cd/g4Kvemh6WQuiMTtli6sZrg13Y/+XzsW0DYOK63yF6enDjrcx7vc7fpGms97P2frQfCXccpY3C4McZ+IugijzL5cnZmDk3kRYHV4MMd24/n2fsun+ore5KMVpS3dm9/Vl0bKdBBquq4pIibVJ5vv64F2CZAWQ2XCBPwJBugaHk+tpofyTCvdEHbpQu4WjOlEPjXc+J5Q494I7rgsBYjR7pB2eY5w1e8kdk/D2J9ugW62QP9pZj9tV7ruh5pJJW5BoO+j9i9FvXhe1GV4jpsu43IEewoquhGB/oOaHmxjxtW1zbZcbRXdYVS4MIHwGl/yXBupe0EV3mghXLWlj6u5wFrLOwSocJ8iuV1tog7I5ZKGV6yd1tiRoFtwW6SifhuFOQHR/sOo/e9sY/fmyhlvmlaZ2B3RjrbnXVeMcWdf4QKG7jgL9FsD9HDDBz+7U5ENO8tNtxYd1hjt/8DZ4ditIVlQ32Fg/oDqNvHB8D339fX1cLyFSdPe0jcRwuos2vBRO5wsEJX/uoPqs7mOxorxpdGctSSyuyKEH1hN10+2TyILAE2X42zcO2oj9ai+bbIgiQd73O5J7F9qtDsLNd3G9W2yOLUb2778/wb8X0bAvncIhvoXRUFvKgbBKNrXKP/pTF2wynRQOzM8cbuGeUEvnb10L3bfQ01nc8Ysbgef73f/oNH+RwmEoxNdc3wPnISgnc+edTsumhd0rVLbc1jTEQn401HRNWNPebJoy7E/p/WOEMK/kjJ9Z0RX/5+FWv9gpT5neaMtOx43MyX4A0MIpzV9kTe9uFJhNWcmGYldUuTOY8DXk3RS784MMGLdZ43Bhh4wQN+1kS13+hsoOLOGy77PlAnTeC0daKabhTDa7lOz5X3Le6iXFrq4lpiSOyRR/i28yDJA30NNV/OuO4/7PCdQaqNbsaWpKxkvwlFzCsvqPzhWAbX7LCr/xkSHpyVlb12P2z1v15N2whmoOPNUEtunGEWvRxU+h5p+YXVY1fLR3lr7cRunCV2A7jRAlxigU9PqzDEdZMH2TzRYmTdA2A3UgatNtk9yNkmrqz7pYCrxJZUlc4chzUR2ANdmwZg+ZsBfyP3TaHp4PG3bal/+uwZoDYL/h1Xuu6ZkP2x76flJydvBrewgj8S1JInpjCwFiFPV/aIOwZnyeAFrVdgf4/AyVNVjOU6MPUe4D078u+f+m8Zy3WtUuAp5DAE60arq6zm+w8bVQd704MV7NI1Ykro7hkXDvbQ0Uf4FqOh/sCFIOLvbKoRGzEgYVztuaEsHfDLnb0/LSSg6z2n6ENfxGFZ0QKL8kkJntposnLoRNd238cfi0uB0uhnjcEIS+zQoq8hYRU9G8NeKABFrl/HggZquMECv6nT/F7qajm3scBVwPtnGsl+eBjKCfydqOhYVfZZ9yK2ib1iutg707eYCg+07CHReupsK/kyrqp/nf2Mr4WgL1ZdbTU9PVLJkpiRk2DXyJV4gJEDPwnJ4o+U6W4o+zS7OyO0H4XwL4cL1bafpXAt0Fio62Wg6NlHhKC7kywte3inu9PMUiXoUbetmu72wjAdx/8QyccKCj1kIp3BcDGp/LkK4oNU3LfgLLfjzUYWvGyCOOTvRgH8vp0e3sX3KYDS4+3ivbfRoQBW+lZUAQa74XaAsibZndA+uFcGL6LQP6vBhq6uf4SxgfAKXtuOGbz5t20axQPqmBfo/q+kLBsJHEejtJqYjeAxx4J7USfHaCXxp8PEsaB2Ew9iryDRSIn8cwX8Rgb7a+N7TMeC7G9rRX4AqnGOBvoZAX3Y6nGSVf79R7s3p++ix+9McWhhNd7CExih3ztgPJfU5A7qOB8du8Wvno00OEmqjf6PYDLfm8ehX9lX7zi/y6aAgTIYkSnZws4f2stsNDbrYJbxDzqdXw2U0g3Nxn6ScPHFxtHjBOun7m2QoGtqRA5k5voCLrHH7cdvx6cZo7+gTxulaJWwCdtcyc80T2IWKN0hbJzgj2nqMcWigx+7RH00t3S2vKaymi7NYUzRd2e9lsR8VnMGoPsdGdg8bDw1ymw5pCo1Ta6SRiksGZuPeAxHttCKKus6Nsp30RX09S0p21yGw/XZOdZBd0bgdrbY+iZMRrjfELod7zk0q0UxupKRkn2UhPNTy4bOKrnSxe1U3HZmjpoMRODCo8wtTselvzewp11hVfUOn+74gCIKQLYnmWJRHe4dMzlJX3TUW/NVOu706/VyCUCj4KA7j8AOEsDatABsnT+nfsT/zYjl5glA9VNJ7irXT/cpo+uy+QIs73fcFQRCEDFkRPY7dvSZWJ22Lpx8PWOV/ybFQnX40QSgUSXRwbGD0MBPT26yyT+7GbD62TM8fb00TMbEp2lqj6W4s+xd2ut8LgiAI2cKxDBbo1CzWFOnGaCN16zds6bFFJAVhprMNF13p5mwFHGQmAkSsTZmvWICcwZNUp/u9IAhCN8C1SjhzWDOFaKGxsT3SAv2hkYxn6nNGGp8K4aPTMpORIMxs+mcnXKxJBIhYzsaTiQH/b6uW7p8k3XdSKAiC0G44M1JSCfsnQF91yu1XZC+LtGgq+NMbY/7U3brTFNUQbuRMUXZ7SdcuCNOKA+ceWHFQfUcW/ppiYls+Sg93mrI7NYH6Dp3u94IgCN0AFwq2yv8ureis/FUY+1dEBU37S732+VbTX7JaT6Tp2oH+PrLdSFJk4SUIwiTAHXFno/0xrSqnYmJ5WKPoUvgzlQmjLqzkLAiC0G4IaLGLw4kWxlQEB/qbVfQBv6vffsxf7Xg654HK6B6o3C9Q08NZJbWhNF07XdIfdVdiH0EQxoGt2D0M0PEiQMTyMlfmtLv0bxvTJzvd3wVBELqBJIq2w5jebaF604b5uVHo2ACtQqDjhnopFCH+NOkJTzQQPsHp/LPNqEkPcNHETj+fIAg5YBTtiyp8TgSIWF6WHsercD710tJO93dBEIQuYBuuPo6Kfk966bqNC/o1FvnVdRwXYmL31P6y335ltHKbDtznrOFeWohA70au15HhvNHMgHWl1eEtHXguQRDyJumt1lCFr4sAEcvLEOhOVPSmTvd1QRCEbmBADeyEOnVnWrulYO40S5T2NyP4E1DX9mbh0sbbnMW1nBLlv4jgH8l63kgzcwJ921Vc0sZnEgShXQzr6jOMDj+SQoRieZiD2rqkRB9c0mP27HRfFwRBKDoU0U4Yu49boLu2Ni83/3wtcq0MCJdZFf7XqdpA3veI+oB5TrmjDNDFCCGDiuePNd4UNUAn5v0sgiB0CKvpxUbTH0WAiOVQ8+MRDiAc1oE63c8FQRCKTrIgiY2i51mgVRvG0fGMt7WWy9JNCPR9VHQsKv9cp5fuldW9DUTLlNVVb3T1zQjhK1bRVXztPLwnmvU/rk6g+vKs7l8QhILhFL0JgW4QASKWpTVcA+h2BPdayd8uCIKwdZKyfYqBcOFkF/U87jZcl8JDqMLvODDcxv7liXLLfOxHnHZ77avc/BAt0n1RXw/X7Wheepv+/v7ZA/MH1GBlcM4Q1HZMYztUdZ8EfNUCPQsVvRV1+ArqcAPp0UZsX57zhwqfGgLb3+FXIghCXlgIKy2Ee0WAiGVpqMODBuh7i+YF3ek+LgiCUHSG5w3vYrT7QlYnCjyn889iQ6AbLfgLEejEEeXejL34XOzBg3yvr7rtXGK19a7sliH4Q632LzGq+nqj6ANGV89AHS5F8A+z4OCf1Y61ggG6LynZZ3b6nQiCkCMI1Y9JALpY1jU/rPK/4gJaURRJzQ9BEIStYGP/UavptpwW+Jyh6iFOa5vGbACtbsSN0D1j7D/8+xYC272o6X6rw4OoKfMA862cnD+EYL/iwD2p0+9EEIQcQR1ODuU0zZ+Y2JSNfZER/NWo3VFtzsgiCILQdSRJst0wuMNQh8t8jqcLvLjfYHyS0TjRaFnr9x799xrpfts3f1TXGQi32krYf0V//+xOvxtBEHLCbr+8jEBfFQEilpWhDmuMdsdWe5PdOt2/BUEQio6ZHRYl4H+EOusift1laUwJp2wHOrG+Y10qnwvCdIbzhlsI56dBawUYgMS63jjr1Q+GyoTNLjarw11cEAShsOzTO/oEE4d34ZiUugUYx9turdMW1PS9puuVnJ4LwjRm1hD4Omr6iQgQsamaS08//M0JJLWVMnkIgiBsFaPciyzQvTNVeDy65of//bC2R3b6nQiCkD+zzBx6sdXhUglCF5uCreWUjAb8qgT8a5IoqXS6YwuCIBQdp9x8VPRBP8M3AJvV3G9CCK8ckxZYEIRpzCwL4V0IdM1M9jsVm5o1xevtFuiTQzC0Y6c7tSAIQjdQX1jvTZTbzwKdzmPpTJuH17tdAf3HaHob1yfp9DsRBKE9zELlP4eK/jXTBj6xrCydPB5BCKfZOdXBTndoQRCEbqMaVwetdl8zQHfPlLm4JT6MplUG6MQBRTt1+j0IgtA+tjGKvssLyJky6Illa6jDWgR/EVfZ7XRnFgRB6FYGS4OPN0D/hxDuRE0zIB6E0+3SKgR/ko98qdPtLwhCG+mP+mcj0J8l/kNsMsaTJKrwT+qhAzrdlwVBELqdEAWdKPcmVPT36bwp2Ag4p1uS2P13Par3drrdBUFoL7MGewZ3R6CrZ3oAnNhki0XRzVSqrahH/ZKvXRAEIQMGK/U5Lg5PQ+3PsRDWcYKPTo/3WVmj2GE6d1w0ovwLE6jv0On2FgShzfCR54CyT0YdbhABIjbRSQQ1XTcC1XcmURJ3ui8LgiBMJziNOQIttTEdbzVd0Rp3u3nOaASbhxuNcl9I4vC0XcXtShBmJvXK4BzOt42abunmgW2mW7uP6ZuFom5H8B/pj6RSrSAIQl7YqK/swL0WNf3YqnBbJ8b8TOYnCHch0CVGhffbyO7a6XYVBKHD+ceN9scgBMmA1b22xgDdx/9t1zVR+zUI7j2SblcQBKE9JL3JbparpQNdh5oeLsDcM06jNQb83aj8pwbjMNTpdhQEoQC4itvdAJ1lIawWAdJd1jqxMop+npTssyz4i1HTmjzfo2tdE/zKgYrdo9P9VxAEYQaxDceG7FMOT+RifXwiguXqetemTs9JG+aJxj1ROS1Meyun+Te9JgyogZ3qUX3bTjeiIAgFIAFabBT9sbt2U2a2NQb30XUW6Eqj6djh3kALoiTmQd4C3dESCRnb2jTmA2g152ofLvu+TvddQRCEmYov++0T8NWk7N+I4M9E5a/ksZrKS9f5ckOQtEuUNK5VW8dxpFROYwPvM9r/yCr6QAL0HAu2v9PtJQhCwRguB2MU3d3pRbXYeAf5tODfPQb8j23Zv2FJaYMfrQF6HWq6Io9Ynqb4+DcqOtnNdnt1ttcKgiAILUyZEEvutUb5zyPQRTwP8GZUOnaXa+tPSMbaVOeh1ikH/3zO0mXTWh7hjxb8+Ua7Y412hyyp1OZ2um0EQSgoiaantwaVTi+wxbZqDyHQjRb8VwcV7rPRq5w1DLgUNf2Ej72zvjYCPWBV+JTtGRW3K0EQhIIy3DPc58C9ErX/nAH6rdV0fSpGINxlNa1GTfc3PR7SIocbBEnLWuN+4//HChZ28bU6PIg63IcQ7kagf6GmG4yiX2NMH/Mlf2gohV063QaCIBScAzTOQ+3e1BqECrDAFttsxikWAf4Co/0z+qMVs9kXeOP3Was8fa7R9DU+gs9UfChaZ8GvHJ4zvLAzPVUQBEEYJ9twnAUXGF4eLe8ZjNzuyWz7dBfTO5ymz1jlz0flL0WgWxAacX0bn448xqDG88D9qOgao/zPuVK7hfAuX/LP8D2+j4sIJlGy3YpoxeN4M6zTDSAIQsEx2ixCcB/bsNvR+cW22AbRkZ5k8AQB4UeoR1/GfrQD85epLb1TLIcTXDmbd5m6ckG4l7OuJD3hie3rmYIgCEJWDEQDCmPc2VbsHg7ck0xMw1Zbb8DX2QvClKrPdr3h8ET7lyC415qSff1I7F6J5fDCpGSfY2L3VK5HYkqEw8oNDGm3VxKPLpDis4IgTAoOYEurrIoAKZzwSF2egC52ED7i49ryvmh5z3jeKepwlIGwaur3kcZ8XI+aPuhL/vH590ZBEAShkzRPTmBRtEhzgUAuhNjpexIEYRpCQM+yOlzW6UW3WMsFrsonDqsthKs5NbJR7vBkwcETqjCOJX8oKvrZlF3qFF1tIKwM84LOrwcKgiAIgiAIMwqr6UgEyYBVAEuDAS2EO6yqnofl2nK/qy9N5p2GOAxZCKdMIRPWIxb8tT72L2368wqCIAiCIAhCNmDslxugX7dyeBdgIT6jLE1jyO5Wmm7B2J9ke5L9UeM8Duib7Dvti2wZ4+o7+OdO9F4shLUIdIlV9GQ+fs+2twmCIAiCIAgzngTqO/Bi08b+v6zyP0XwD4fyUhEjORqfTHAbc1tb8L9CRR8y4J49NNvtVY+iTCrEGkXPm0hMD6VFDcO9qOlsVHQAZzPJ4j4EQRAEQRAEYSzrU+X5yJdcyR2Gyn/KQvilBbqpdSoi6Xmnbq2CTY0iguFGq+nn3NZOhcMx7t856xebVOz+HEBudViz9XvjqrXhFgR/SqLcflnfiyAIgiAIgiBskZHYJajoOAT6WzM+5MFOL+C72VDTIxboXqvpdtT0Jz7xcMoN5PkOsYJDCP48Lly4JQHJ94bgbzXaf8BUzJ553pMgCIIgCIIgbI5ZC6OFvaZS2xOVexPG/mcIjYWsnIZMOKaCs0ldhbH/VBK7p9Uqtbl9UR+n0801tWHSm+xmSuH9CHT/pt7Zhqq24a+c3z1EkulKEARBEARBKAAJJDsQJIt5kWpVOIYD1hFoDdepaLkUdXqhXyQXq7RwYKNy+OUYh5M4jS6WgrGl+q5JlEwone5U4Dzuw6XqsxHCfRtnw0rjPXS4D3X1q7ZU9Vygql33JQiCIAiCIAjjxvW43VHXDkagdxhNZ1hNf0AdHuRF90wSJK2TIF9mwbE0rd1hgFahpl8ghNOwTO+xQCtwu+o+nSziNAS2HxXd3nonrftGCH/m4oKmTNipexMEQRAEQRCECUFzaCFWwisQwpdRh19YqF5pNd3MO+6the50cdna+HlQhzUI4U6E8E+E8CcL4XxU7kOm4g7jdokKAqfzRRUubT0DAq02yv/GAL1qSaU2t9P3JwiCIAiCIAiTYnGE84ZV7QBU1f9BoO8jhH+hpofZrKY164vsdaetTQO11z8Pp6r1f0WonoZxeKXRYVG9Xs8kdW7WDFbqcxIVTkGgOxH8/aj82fvMHn5S3vEngiAIgiAIgpA7fdHynmTugRWn3Hyj919kwB1mFB2LsWdBci27KaVuWuXaeletopyObDjdaNxbw7WqFcvhr3HKn2t1OMaocLidUx0MpbAL10/pj+pQ5ErhA/MHVKLDUYmunp2o8BYf+e2jAt+vIAiCIAiCIExt8dsTnmhL1htdfeqI8i80Mb3NlMMnrA7fNFC9GIFuaQVFc2G+9bEkLaGyXqxsECwTt+bPSa3x8xvG11vack36Nyo+1aCLEPyZCPQxC+FoVP6FNg5PcbFLXMXt3r9jHaIugsXRkHZ7DZeDwbieea0RQRAEQRAEQSg49W05ta+BWt2o8CIb+3daCCdYoFMthK9Z8OdbHX7IhRAR/KWo6AoE+gcC/dM2iurdjDrcaiHcYVO3IvoPm4VwF7t98e+jptusDqsa8Sh0g+V/zxmp+OdxBi9NP7EQLkSg81CHrxhNn7HgV9qSf7UrhUN82dtqb3W3/qh/dqdbSxAEQRAEQYgKzf8HgthlRpriu6oAAAAASUVORK5CYII=" parent="1" vertex="1">
          <mxGeometry x="-190" y="405.6" width="90" height="38.81" as="geometry" />
        </mxCell>
        <mxCell id="jjyL37ydzv4EgVIUEbSo-14" style="edgeStyle=orthogonalEdgeStyle;rounded=0;orthogonalLoop=1;jettySize=auto;html=1;" edge="1" parent="1" source="jjyL37ydzv4EgVIUEbSo-1" target="jjyL37ydzv4EgVIUEbSo-5">
          <mxGeometry relative="1" as="geometry" />
        </mxCell>
        <mxCell id="jjyL37ydzv4EgVIUEbSo-1" value="bronze.players_info" style="rounded=0;whiteSpace=wrap;html=1;fillColor=#ffe6cc;strokeColor=#d79b00;" vertex="1" parent="1">
          <mxGeometry x="-40" y="280" width="160" height="30" as="geometry" />
        </mxCell>
        <mxCell id="jjyL37ydzv4EgVIUEbSo-15" style="edgeStyle=orthogonalEdgeStyle;rounded=1;orthogonalLoop=1;jettySize=auto;html=1;curved=0;" edge="1" parent="1" source="jjyL37ydzv4EgVIUEbSo-2" target="jjyL37ydzv4EgVIUEbSo-8">
          <mxGeometry relative="1" as="geometry" />
        </mxCell>
        <mxCell id="jjyL37ydzv4EgVIUEbSo-2" value="bronze.teams_info" style="rounded=0;whiteSpace=wrap;html=1;fillColor=#ffe6cc;strokeColor=#d79b00;" vertex="1" parent="1">
          <mxGeometry x="-40" y="378.81" width="160" height="30" as="geometry" />
        </mxCell>
        <mxCell id="jjyL37ydzv4EgVIUEbSo-16" style="edgeStyle=orthogonalEdgeStyle;rounded=1;orthogonalLoop=1;jettySize=auto;html=1;entryX=0;entryY=0.5;entryDx=0;entryDy=0;curved=0;" edge="1" parent="1" source="jjyL37ydzv4EgVIUEbSo-3" target="jjyL37ydzv4EgVIUEbSo-7">
          <mxGeometry relative="1" as="geometry" />
        </mxCell>
        <mxCell id="jjyL37ydzv4EgVIUEbSo-17" style="edgeStyle=orthogonalEdgeStyle;rounded=1;orthogonalLoop=1;jettySize=auto;html=1;curved=0;" edge="1" parent="1" source="jjyL37ydzv4EgVIUEbSo-3" target="jjyL37ydzv4EgVIUEbSo-9">
          <mxGeometry relative="1" as="geometry" />
        </mxCell>
        <mxCell id="jjyL37ydzv4EgVIUEbSo-3" value="bronze.games_info" style="rounded=0;whiteSpace=wrap;html=1;fillColor=#ffe6cc;strokeColor=#d79b00;" vertex="1" parent="1">
          <mxGeometry x="-40" y="475" width="160" height="30" as="geometry" />
        </mxCell>
        <mxCell id="jjyL37ydzv4EgVIUEbSo-18" style="edgeStyle=orthogonalEdgeStyle;rounded=1;orthogonalLoop=1;jettySize=auto;html=1;curved=0;" edge="1" parent="1" source="jjyL37ydzv4EgVIUEbSo-4" target="jjyL37ydzv4EgVIUEbSo-6">
          <mxGeometry relative="1" as="geometry" />
        </mxCell>
        <mxCell id="jjyL37ydzv4EgVIUEbSo-4" value="bronze.player_stats" style="rounded=0;whiteSpace=wrap;html=1;fillColor=#ffe6cc;strokeColor=#d79b00;" vertex="1" parent="1">
          <mxGeometry x="-40" y="580" width="160" height="30" as="geometry" />
        </mxCell>
        <mxCell id="jjyL37ydzv4EgVIUEbSo-29" style="edgeStyle=orthogonalEdgeStyle;rounded=1;orthogonalLoop=1;jettySize=auto;html=1;curved=0;" edge="1" parent="1" source="jjyL37ydzv4EgVIUEbSo-5" target="jjyL37ydzv4EgVIUEbSo-19">
          <mxGeometry relative="1" as="geometry" />
        </mxCell>
        <mxCell id="jjyL37ydzv4EgVIUEbSo-43" style="edgeStyle=orthogonalEdgeStyle;rounded=1;orthogonalLoop=1;jettySize=auto;html=1;entryX=0;entryY=0.5;entryDx=0;entryDy=0;curved=0;" edge="1" parent="1" source="jjyL37ydzv4EgVIUEbSo-5" target="jjyL37ydzv4EgVIUEbSo-27">
          <mxGeometry relative="1" as="geometry" />
        </mxCell>
        <mxCell id="jjyL37ydzv4EgVIUEbSo-5" value="&lt;span style=&quot;color: rgb(0, 0, 0);&quot;&gt;silver.players_info&lt;/span&gt;" style="rounded=0;whiteSpace=wrap;html=1;fillColor=#f5f5f5;strokeColor=#666666;fontColor=#333333;" vertex="1" parent="1">
          <mxGeometry x="180" y="280" width="160" height="30" as="geometry" />
        </mxCell>
        <mxCell id="jjyL37ydzv4EgVIUEbSo-42" style="edgeStyle=orthogonalEdgeStyle;rounded=1;orthogonalLoop=1;jettySize=auto;html=1;entryX=0;entryY=0.75;entryDx=0;entryDy=0;curved=0;" edge="1" parent="1" source="jjyL37ydzv4EgVIUEbSo-6" target="jjyL37ydzv4EgVIUEbSo-27">
          <mxGeometry relative="1" as="geometry" />
        </mxCell>
        <mxCell id="jjyL37ydzv4EgVIUEbSo-6" value="silver.player_stats" style="rounded=0;whiteSpace=wrap;html=1;fillColor=#f5f5f5;strokeColor=#666666;fontColor=#333333;" vertex="1" parent="1">
          <mxGeometry x="180" y="580" width="160" height="30" as="geometry" />
        </mxCell>
        <mxCell id="jjyL37ydzv4EgVIUEbSo-34" style="edgeStyle=orthogonalEdgeStyle;rounded=1;orthogonalLoop=1;jettySize=auto;html=1;entryX=0;entryY=0.5;entryDx=0;entryDy=0;curved=0;" edge="1" parent="1" source="jjyL37ydzv4EgVIUEbSo-7" target="jjyL37ydzv4EgVIUEbSo-23">
          <mxGeometry relative="1" as="geometry" />
        </mxCell>
        <mxCell id="jjyL37ydzv4EgVIUEbSo-36" style="edgeStyle=orthogonalEdgeStyle;rounded=1;orthogonalLoop=1;jettySize=auto;html=1;entryX=0;entryY=0.5;entryDx=0;entryDy=0;curved=0;" edge="1" parent="1" source="jjyL37ydzv4EgVIUEbSo-7" target="jjyL37ydzv4EgVIUEbSo-24">
          <mxGeometry relative="1" as="geometry" />
        </mxCell>
        <mxCell id="jjyL37ydzv4EgVIUEbSo-7" value="&lt;span style=&quot;color: rgb(0, 0, 0);&quot;&gt;silver.games_info&lt;/span&gt;" style="rounded=0;whiteSpace=wrap;html=1;fillColor=#f5f5f5;strokeColor=#666666;fontColor=#333333;" vertex="1" parent="1">
          <mxGeometry x="180" y="430" width="160" height="30" as="geometry" />
        </mxCell>
        <mxCell id="jjyL37ydzv4EgVIUEbSo-30" style="edgeStyle=orthogonalEdgeStyle;rounded=1;orthogonalLoop=1;jettySize=auto;html=1;entryX=0;entryY=0.75;entryDx=0;entryDy=0;curved=0;" edge="1" parent="1" source="jjyL37ydzv4EgVIUEbSo-8" target="jjyL37ydzv4EgVIUEbSo-20">
          <mxGeometry relative="1" as="geometry" />
        </mxCell>
        <mxCell id="jjyL37ydzv4EgVIUEbSo-31" style="edgeStyle=orthogonalEdgeStyle;rounded=1;orthogonalLoop=1;jettySize=auto;html=1;curved=0;" edge="1" parent="1" source="jjyL37ydzv4EgVIUEbSo-8" target="jjyL37ydzv4EgVIUEbSo-22">
          <mxGeometry relative="1" as="geometry" />
        </mxCell>
        <mxCell id="jjyL37ydzv4EgVIUEbSo-33" style="edgeStyle=orthogonalEdgeStyle;rounded=1;orthogonalLoop=1;jettySize=auto;html=1;entryX=0;entryY=0.5;entryDx=0;entryDy=0;curved=0;" edge="1" parent="1" source="jjyL37ydzv4EgVIUEbSo-8" target="jjyL37ydzv4EgVIUEbSo-23">
          <mxGeometry relative="1" as="geometry" />
        </mxCell>
        <mxCell id="jjyL37ydzv4EgVIUEbSo-35" style="edgeStyle=orthogonalEdgeStyle;rounded=1;orthogonalLoop=1;jettySize=auto;html=1;entryX=0;entryY=0.5;entryDx=0;entryDy=0;curved=0;" edge="1" parent="1" source="jjyL37ydzv4EgVIUEbSo-8" target="jjyL37ydzv4EgVIUEbSo-24">
          <mxGeometry relative="1" as="geometry" />
        </mxCell>
        <mxCell id="jjyL37ydzv4EgVIUEbSo-38" style="edgeStyle=orthogonalEdgeStyle;rounded=1;orthogonalLoop=1;jettySize=auto;html=1;entryX=0;entryY=0.5;entryDx=0;entryDy=0;curved=0;" edge="1" parent="1" source="jjyL37ydzv4EgVIUEbSo-8" target="jjyL37ydzv4EgVIUEbSo-25">
          <mxGeometry relative="1" as="geometry" />
        </mxCell>
        <mxCell id="jjyL37ydzv4EgVIUEbSo-8" value="&lt;span style=&quot;color: rgb(0, 0, 0);&quot;&gt;silver.teams_info&lt;/span&gt;" style="rounded=0;whiteSpace=wrap;html=1;fillColor=#f5f5f5;strokeColor=#666666;fontColor=#333333;" vertex="1" parent="1">
          <mxGeometry x="180" y="355" width="160" height="30" as="geometry" />
        </mxCell>
        <mxCell id="jjyL37ydzv4EgVIUEbSo-37" style="edgeStyle=orthogonalEdgeStyle;rounded=1;orthogonalLoop=1;jettySize=auto;html=1;curved=0;" edge="1" parent="1" source="jjyL37ydzv4EgVIUEbSo-9" target="jjyL37ydzv4EgVIUEbSo-25">
          <mxGeometry relative="1" as="geometry" />
        </mxCell>
        <mxCell id="jjyL37ydzv4EgVIUEbSo-9" value="&lt;span style=&quot;color: rgb(0, 0, 0);&quot;&gt;silver.future_games_info&lt;/span&gt;" style="rounded=0;whiteSpace=wrap;html=1;fillColor=#f5f5f5;strokeColor=#666666;fontColor=#333333;" vertex="1" parent="1">
          <mxGeometry x="180" y="505" width="160" height="30" as="geometry" />
        </mxCell>
        <mxCell id="jjyL37ydzv4EgVIUEbSo-19" value="gold.v_dimension_players" style="rounded=0;whiteSpace=wrap;html=1;fillColor=#fff2cc;strokeColor=#d6b656;" vertex="1" parent="1">
          <mxGeometry x="400" y="260" width="160" height="30" as="geometry" />
        </mxCell>
        <mxCell id="jjyL37ydzv4EgVIUEbSo-32" style="edgeStyle=orthogonalEdgeStyle;rounded=0;orthogonalLoop=1;jettySize=auto;html=1;" edge="1" parent="1" source="jjyL37ydzv4EgVIUEbSo-20" target="jjyL37ydzv4EgVIUEbSo-22">
          <mxGeometry relative="1" as="geometry" />
        </mxCell>
        <mxCell id="jjyL37ydzv4EgVIUEbSo-20" value="gold.v_dimension_teams" style="rounded=0;whiteSpace=wrap;html=1;fillColor=#fff2cc;strokeColor=#d6b656;" vertex="1" parent="1">
          <mxGeometry x="400" y="313" width="160" height="30" as="geometry" />
        </mxCell>
        <mxCell id="jjyL37ydzv4EgVIUEbSo-22" value="gold.v_fct_player_history" style="rounded=0;whiteSpace=wrap;html=1;fillColor=#fff2cc;strokeColor=#d6b656;" vertex="1" parent="1">
          <mxGeometry x="400" y="366" width="160" height="30" as="geometry" />
        </mxCell>
        <mxCell id="jjyL37ydzv4EgVIUEbSo-23" value="gold.v_fct_results" style="rounded=0;whiteSpace=wrap;html=1;fillColor=#fff2cc;strokeColor=#d6b656;" vertex="1" parent="1">
          <mxGeometry x="400" y="419" width="160" height="30" as="geometry" />
        </mxCell>
        <mxCell id="jjyL37ydzv4EgVIUEbSo-24" value="gold.v_fct_standing" style="rounded=0;whiteSpace=wrap;html=1;fillColor=#fff2cc;strokeColor=#d6b656;" vertex="1" parent="1">
          <mxGeometry x="400" y="471" width="160" height="30" as="geometry" />
        </mxCell>
        <mxCell id="jjyL37ydzv4EgVIUEbSo-25" value="gold.v_fct_future_games" style="rounded=0;whiteSpace=wrap;html=1;fillColor=#fff2cc;strokeColor=#d6b656;" vertex="1" parent="1">
          <mxGeometry x="400" y="524" width="160" height="30" as="geometry" />
        </mxCell>
        <mxCell id="jjyL37ydzv4EgVIUEbSo-41" style="edgeStyle=orthogonalEdgeStyle;rounded=0;orthogonalLoop=1;jettySize=auto;html=1;" edge="1" parent="1" source="jjyL37ydzv4EgVIUEbSo-26" target="jjyL37ydzv4EgVIUEbSo-27">
          <mxGeometry relative="1" as="geometry" />
        </mxCell>
        <mxCell id="jjyL37ydzv4EgVIUEbSo-26" value="gold.v_dimension_stat_type" style="rounded=0;whiteSpace=wrap;html=1;fillColor=#fff2cc;strokeColor=#d6b656;" vertex="1" parent="1">
          <mxGeometry x="400" y="577" width="160" height="30" as="geometry" />
        </mxCell>
        <mxCell id="jjyL37ydzv4EgVIUEbSo-27" value="gold.v_fct_player_stats" style="rounded=0;whiteSpace=wrap;html=1;fillColor=#fff2cc;strokeColor=#d6b656;" vertex="1" parent="1">
          <mxGeometry x="400" y="630" width="160" height="30" as="geometry" />
        </mxCell>
        <mxCell id="jjyL37ydzv4EgVIUEbSo-40" style="edgeStyle=orthogonalEdgeStyle;rounded=1;orthogonalLoop=1;jettySize=auto;html=1;entryX=0.017;entryY=0.618;entryDx=0;entryDy=0;entryPerimeter=0;curved=0;" edge="1" parent="1" source="jjyL37ydzv4EgVIUEbSo-6" target="jjyL37ydzv4EgVIUEbSo-26">
          <mxGeometry relative="1" as="geometry" />
        </mxCell>
      </root>
    </mxGraphModel>
  </diagram>
</mxfile>
